<svg xmlns="http://www.w3.org/2000/svg" xmlns:xlink="http://www.w3.org/1999/xlink" width="510" zoomAndPan="magnify" viewBox="0 0 382.5 212.249992" height="283" preserveAspectRatio="xMidYMid meet" version="1.0"><defs><g/><clipPath id="ab7e559a75"><path d="M 120 0 L 261.75 0 L 261.75 149.472656 L 120 149.472656 Z M 120 0 " clip-rule="nonzero"/></clipPath><clipPath id="c587a5b29d"><path d="M 201.476562 69.574219 L 137.972656 69.574219 C 135.511719 69.574219 133.730469 67.222656 134.394531 64.851562 L 151.828125 2.722656 C 152.277344 1.117188 153.742188 0.0078125 155.40625 0.0078125 L 218.910156 0.0078125 C 221.371094 0.0078125 223.152344 2.359375 222.488281 4.730469 L 205.054688 66.859375 C 204.605469 68.464844 203.140625 69.574219 201.476562 69.574219 Z M 160.230469 116.46875 L 169.207031 84.480469 C 169.871094 82.109375 168.089844 79.757812 165.628906 79.757812 L 132.984375 79.757812 C 131.316406 79.757812 129.855469 80.867188 129.40625 82.472656 L 120.429688 114.460938 C 119.761719 116.832031 121.546875 119.183594 124.007812 119.183594 L 156.652344 119.183594 C 158.316406 119.183594 159.78125 118.074219 160.230469 116.46875 Z M 176.75 82.472656 L 159.316406 144.601562 C 158.648438 146.972656 160.433594 149.324219 162.894531 149.324219 L 226.394531 149.324219 C 228.0625 149.324219 229.527344 148.214844 229.976562 146.609375 L 247.410156 84.480469 C 248.074219 82.109375 246.292969 79.757812 243.828125 79.757812 L 180.328125 79.757812 C 178.660156 79.757812 177.199219 80.867188 176.75 82.472656 Z M 221.574219 32.863281 L 212.597656 64.851562 C 211.933594 67.222656 213.714844 69.574219 216.175781 69.574219 L 248.820312 69.574219 C 250.484375 69.574219 251.949219 68.464844 252.398438 66.859375 L 261.375 34.871094 C 262.039062 32.5 260.257812 30.148438 257.796875 30.148438 L 225.152344 30.148438 C 223.488281 30.148438 222.023438 31.257812 221.574219 32.863281 Z M 221.574219 32.863281 " clip-rule="nonzero"/></clipPath><linearGradient x1="114.296447" gradientTransform="matrix(0.298629, 0, 0, 0.298629, 120.288386, 0.00861954)" y1="-47.633958" x2="358.481197" gradientUnits="userSpaceOnUse" y2="547.291334" id="c9247fecb1"><stop stop-opacity="1" stop-color="rgb(54.899597%, 32.199097%, 100%)" offset="0"/><stop stop-opacity="1" stop-color="rgb(54.899597%, 32.199097%, 100%)" offset="0.0625"/><stop stop-opacity="1" stop-color="rgb(54.803467%, 32.281494%, 99.975586%)" offset="0.09375"/><stop stop-opacity="1" stop-color="rgb(54.441833%, 32.591248%, 99.885559%)" offset="0.0976563"/><stop stop-opacity="1" stop-color="rgb(54.177856%, 32.818604%, 99.819946%)" offset="0.101563"/><stop stop-opacity="1" stop-color="rgb(53.913879%, 33.044434%, 99.754333%)" offset="0.105469"/><stop stop-opacity="1" stop-color="rgb(53.649902%, 33.27179%, 99.688721%)" offset="0.109375"/><stop stop-opacity="1" stop-color="rgb(53.384399%, 33.499146%, 99.621582%)" offset="0.113281"/><stop stop-opacity="1" stop-color="rgb(53.120422%, 33.726501%, 99.555969%)" offset="0.117188"/><stop stop-opacity="1" stop-color="rgb(52.854919%, 33.953857%, 99.490356%)" offset="0.121094"/><stop stop-opacity="1" stop-color="rgb(52.590942%, 34.181213%, 99.424744%)" offset="0.125"/><stop stop-opacity="1" stop-color="rgb(52.326965%, 34.407043%, 99.359131%)" offset="0.128906"/><stop stop-opacity="1" stop-color="rgb(52.062988%, 34.634399%, 99.293518%)" offset="0.132813"/><stop stop-opacity="1" stop-color="rgb(51.797485%, 34.861755%, 99.226379%)" offset="0.136719"/><stop stop-opacity="1" stop-color="rgb(51.533508%, 35.089111%, 99.160767%)" offset="0.140625"/><stop stop-opacity="1" stop-color="rgb(51.269531%, 35.314941%, 99.095154%)" offset="0.144531"/><stop stop-opacity="1" stop-color="rgb(51.005554%, 35.542297%, 99.029541%)" offset="0.148438"/><stop stop-opacity="1" stop-color="rgb(50.740051%, 35.769653%, 98.963928%)" offset="0.152344"/><stop stop-opacity="1" stop-color="rgb(50.476074%, 35.997009%, 98.898315%)" offset="0.15625"/><stop stop-opacity="1" stop-color="rgb(50.212097%, 36.222839%, 98.831177%)" offset="0.160156"/><stop stop-opacity="1" stop-color="rgb(49.94812%, 36.450195%, 98.765564%)" offset="0.164063"/><stop stop-opacity="1" stop-color="rgb(49.682617%, 36.677551%, 98.699951%)" offset="0.167969"/><stop stop-opacity="1" stop-color="rgb(49.41864%, 36.904907%, 98.634338%)" offset="0.171875"/><stop stop-opacity="1" stop-color="rgb(49.153137%, 37.130737%, 98.568726%)" offset="0.175781"/><stop stop-opacity="1" stop-color="rgb(48.88916%, 37.358093%, 98.503113%)" offset="0.179688"/><stop stop-opacity="1" stop-color="rgb(48.625183%, 37.585449%, 98.4375%)" offset="0.183594"/><stop stop-opacity="1" stop-color="rgb(48.361206%, 37.812805%, 98.371887%)" offset="0.1875"/><stop stop-opacity="1" stop-color="rgb(48.095703%, 38.040161%, 98.304749%)" offset="0.191406"/><stop stop-opacity="1" stop-color="rgb(47.831726%, 38.267517%, 98.239136%)" offset="0.195313"/><stop stop-opacity="1" stop-color="rgb(47.567749%, 38.493347%, 98.173523%)" offset="0.199219"/><stop stop-opacity="1" stop-color="rgb(47.303772%, 38.720703%, 98.10791%)" offset="0.203125"/><stop stop-opacity="1" stop-color="rgb(47.038269%, 38.948059%, 98.042297%)" offset="0.207031"/><stop stop-opacity="1" stop-color="rgb(46.774292%, 39.175415%, 97.976685%)" offset="0.210938"/><stop stop-opacity="1" stop-color="rgb(46.510315%, 39.401245%, 97.909546%)" offset="0.214844"/><stop stop-opacity="1" stop-color="rgb(46.246338%, 39.628601%, 97.843933%)" offset="0.21875"/><stop stop-opacity="1" stop-color="rgb(45.980835%, 39.855957%, 97.77832%)" offset="0.222656"/><stop stop-opacity="1" stop-color="rgb(45.716858%, 40.083313%, 97.712708%)" offset="0.226563"/><stop stop-opacity="1" stop-color="rgb(45.451355%, 40.309143%, 97.647095%)" offset="0.230469"/><stop stop-opacity="1" stop-color="rgb(45.187378%, 40.536499%, 97.581482%)" offset="0.234375"/><stop stop-opacity="1" stop-color="rgb(44.923401%, 40.763855%, 97.514343%)" offset="0.238281"/><stop stop-opacity="1" stop-color="rgb(44.659424%, 40.991211%, 97.44873%)" offset="0.242188"/><stop stop-opacity="1" stop-color="rgb(44.393921%, 41.217041%, 97.383118%)" offset="0.246094"/><stop stop-opacity="1" stop-color="rgb(44.129944%, 41.444397%, 97.317505%)" offset="0.25"/><stop stop-opacity="1" stop-color="rgb(43.865967%, 41.671753%, 97.251892%)" offset="0.253906"/><stop stop-opacity="1" stop-color="rgb(43.60199%, 41.899109%, 97.186279%)" offset="0.257813"/><stop stop-opacity="1" stop-color="rgb(43.336487%, 42.124939%, 97.120667%)" offset="0.261719"/><stop stop-opacity="1" stop-color="rgb(43.07251%, 42.352295%, 97.055054%)" offset="0.265625"/><stop stop-opacity="1" stop-color="rgb(42.808533%, 42.579651%, 96.987915%)" offset="0.269531"/><stop stop-opacity="1" stop-color="rgb(42.544556%, 42.807007%, 96.922302%)" offset="0.273438"/><stop stop-opacity="1" stop-color="rgb(42.279053%, 43.034363%, 96.856689%)" offset="0.277344"/><stop stop-opacity="1" stop-color="rgb(42.015076%, 43.261719%, 96.791077%)" offset="0.28125"/><stop stop-opacity="1" stop-color="rgb(41.749573%, 43.487549%, 96.725464%)" offset="0.285156"/><stop stop-opacity="1" stop-color="rgb(41.485596%, 43.714905%, 96.659851%)" offset="0.289062"/><stop stop-opacity="1" stop-color="rgb(41.221619%, 43.942261%, 96.592712%)" offset="0.292969"/><stop stop-opacity="1" stop-color="rgb(40.957642%, 44.169617%, 96.5271%)" offset="0.296875"/><stop stop-opacity="1" stop-color="rgb(40.692139%, 44.395447%, 96.461487%)" offset="0.300781"/><stop stop-opacity="1" stop-color="rgb(40.428162%, 44.622803%, 96.395874%)" offset="0.304688"/><stop stop-opacity="1" stop-color="rgb(40.164185%, 44.850159%, 96.330261%)" offset="0.308594"/><stop stop-opacity="1" stop-color="rgb(39.900208%, 45.077515%, 96.264648%)" offset="0.3125"/><stop stop-opacity="1" stop-color="rgb(39.634705%, 45.303345%, 96.19751%)" offset="0.316406"/><stop stop-opacity="1" stop-color="rgb(39.370728%, 45.530701%, 96.131897%)" offset="0.320313"/><stop stop-opacity="1" stop-color="rgb(39.10675%, 45.758057%, 96.066284%)" offset="0.324219"/><stop stop-opacity="1" stop-color="rgb(38.842773%, 45.985413%, 96.000671%)" offset="0.328125"/><stop stop-opacity="1" stop-color="rgb(38.577271%, 46.211243%, 95.935059%)" offset="0.332031"/><stop stop-opacity="1" stop-color="rgb(38.313293%, 46.438599%, 95.869446%)" offset="0.335938"/><stop stop-opacity="1" stop-color="rgb(38.047791%, 46.665955%, 95.803833%)" offset="0.339844"/><stop stop-opacity="1" stop-color="rgb(37.783813%, 46.893311%, 95.73822%)" offset="0.34375"/><stop stop-opacity="1" stop-color="rgb(37.519836%, 47.120667%, 95.671082%)" offset="0.347656"/><stop stop-opacity="1" stop-color="rgb(37.255859%, 47.348022%, 95.605469%)" offset="0.351563"/><stop stop-opacity="1" stop-color="rgb(36.990356%, 47.573853%, 95.539856%)" offset="0.355469"/><stop stop-opacity="1" stop-color="rgb(36.726379%, 47.801208%, 95.474243%)" offset="0.359375"/><stop stop-opacity="1" stop-color="rgb(36.462402%, 48.028564%, 95.40863%)" offset="0.363281"/><stop stop-opacity="1" stop-color="rgb(36.198425%, 48.25592%, 95.343018%)" offset="0.367188"/><stop stop-opacity="1" stop-color="rgb(35.932922%, 48.48175%, 95.275879%)" offset="0.371094"/><stop stop-opacity="1" stop-color="rgb(35.668945%, 48.709106%, 95.210266%)" offset="0.375"/><stop stop-opacity="1" stop-color="rgb(35.404968%, 48.936462%, 95.144653%)" offset="0.378906"/><stop stop-opacity="1" stop-color="rgb(35.140991%, 49.163818%, 95.079041%)" offset="0.382813"/><stop stop-opacity="1" stop-color="rgb(34.875488%, 49.389648%, 95.013428%)" offset="0.386719"/><stop stop-opacity="1" stop-color="rgb(34.611511%, 49.617004%, 94.947815%)" offset="0.390625"/><stop stop-opacity="1" stop-color="rgb(34.346008%, 49.84436%, 94.882202%)" offset="0.394531"/><stop stop-opacity="1" stop-color="rgb(34.082031%, 50.071716%, 94.816589%)" offset="0.398438"/><stop stop-opacity="1" stop-color="rgb(33.818054%, 50.297546%, 94.749451%)" offset="0.402344"/><stop stop-opacity="1" stop-color="rgb(33.554077%, 50.524902%, 94.683838%)" offset="0.40625"/><stop stop-opacity="1" stop-color="rgb(33.288574%, 50.752258%, 94.618225%)" offset="0.410156"/><stop stop-opacity="1" stop-color="rgb(33.024597%, 50.979614%, 94.552612%)" offset="0.414063"/><stop stop-opacity="1" stop-color="rgb(32.76062%, 51.20697%, 94.487%)" offset="0.417969"/><stop stop-opacity="1" stop-color="rgb(32.496643%, 51.434326%, 94.421387%)" offset="0.421875"/><stop stop-opacity="1" stop-color="rgb(32.23114%, 51.660156%, 94.354248%)" offset="0.425781"/><stop stop-opacity="1" stop-color="rgb(31.967163%, 51.887512%, 94.288635%)" offset="0.429688"/><stop stop-opacity="1" stop-color="rgb(31.703186%, 52.114868%, 94.223022%)" offset="0.433594"/><stop stop-opacity="1" stop-color="rgb(31.439209%, 52.342224%, 94.15741%)" offset="0.4375"/><stop stop-opacity="1" stop-color="rgb(31.173706%, 52.568054%, 94.091797%)" offset="0.441406"/><stop stop-opacity="1" stop-color="rgb(30.909729%, 52.79541%, 94.026184%)" offset="0.445313"/><stop stop-opacity="1" stop-color="rgb(30.644226%, 53.022766%, 93.959045%)" offset="0.449219"/><stop stop-opacity="1" stop-color="rgb(30.380249%, 53.250122%, 93.893433%)" offset="0.453125"/><stop stop-opacity="1" stop-color="rgb(30.116272%, 53.475952%, 93.82782%)" offset="0.457031"/><stop stop-opacity="1" stop-color="rgb(29.852295%, 53.703308%, 93.762207%)" offset="0.460938"/><stop stop-opacity="1" stop-color="rgb(29.586792%, 53.930664%, 93.696594%)" offset="0.464844"/><stop stop-opacity="1" stop-color="rgb(29.322815%, 54.15802%, 93.630981%)" offset="0.46875"/><stop stop-opacity="1" stop-color="rgb(29.058838%, 54.38385%, 93.565369%)" offset="0.472656"/><stop stop-opacity="1" stop-color="rgb(28.794861%, 54.611206%, 93.499756%)" offset="0.476563"/><stop stop-opacity="1" stop-color="rgb(28.529358%, 54.838562%, 93.432617%)" offset="0.480469"/><stop stop-opacity="1" stop-color="rgb(28.265381%, 55.065918%, 93.367004%)" offset="0.484375"/><stop stop-opacity="1" stop-color="rgb(28.001404%, 55.293274%, 93.301392%)" offset="0.488281"/><stop stop-opacity="1" stop-color="rgb(27.737427%, 55.52063%, 93.235779%)" offset="0.492188"/><stop stop-opacity="1" stop-color="rgb(27.471924%, 55.74646%, 93.170166%)" offset="0.496094"/><stop stop-opacity="1" stop-color="rgb(27.207947%, 55.973816%, 93.104553%)" offset="0.5"/><stop stop-opacity="1" stop-color="rgb(26.942444%, 56.201172%, 93.037415%)" offset="0.503906"/><stop stop-opacity="1" stop-color="rgb(26.678467%, 56.428528%, 92.971802%)" offset="0.507812"/><stop stop-opacity="1" stop-color="rgb(26.41449%, 56.654358%, 92.906189%)" offset="0.511719"/><stop stop-opacity="1" stop-color="rgb(26.150513%, 56.881714%, 92.840576%)" offset="0.515625"/><stop stop-opacity="1" stop-color="rgb(25.88501%, 57.10907%, 92.774963%)" offset="0.519531"/><stop stop-opacity="1" stop-color="rgb(25.621033%, 57.336426%, 92.709351%)" offset="0.523438"/><stop stop-opacity="1" stop-color="rgb(25.357056%, 57.562256%, 92.642212%)" offset="0.527344"/><stop stop-opacity="1" stop-color="rgb(25.093079%, 57.789612%, 92.576599%)" offset="0.53125"/><stop stop-opacity="1" stop-color="rgb(24.827576%, 58.016968%, 92.510986%)" offset="0.535156"/><stop stop-opacity="1" stop-color="rgb(24.563599%, 58.244324%, 92.445374%)" offset="0.539062"/><stop stop-opacity="1" stop-color="rgb(24.299622%, 58.470154%, 92.379761%)" offset="0.542969"/><stop stop-opacity="1" stop-color="rgb(24.035645%, 58.69751%, 92.314148%)" offset="0.546875"/><stop stop-opacity="1" stop-color="rgb(23.770142%, 58.924866%, 92.248535%)" offset="0.550781"/><stop stop-opacity="1" stop-color="rgb(23.506165%, 59.152222%, 92.182922%)" offset="0.554688"/><stop stop-opacity="1" stop-color="rgb(23.240662%, 59.379578%, 92.115784%)" offset="0.558594"/><stop stop-opacity="1" stop-color="rgb(22.976685%, 59.606934%, 92.050171%)" offset="0.5625"/><stop stop-opacity="1" stop-color="rgb(22.712708%, 59.832764%, 91.984558%)" offset="0.566406"/><stop stop-opacity="1" stop-color="rgb(22.44873%, 60.06012%, 91.918945%)" offset="0.570313"/><stop stop-opacity="1" stop-color="rgb(22.183228%, 60.287476%, 91.853333%)" offset="0.574219"/><stop stop-opacity="1" stop-color="rgb(21.91925%, 60.514832%, 91.78772%)" offset="0.578125"/><stop stop-opacity="1" stop-color="rgb(21.655273%, 60.740662%, 91.720581%)" offset="0.582031"/><stop stop-opacity="1" stop-color="rgb(21.391296%, 60.968018%, 91.654968%)" offset="0.585938"/><stop stop-opacity="1" stop-color="rgb(21.125793%, 61.195374%, 91.589355%)" offset="0.589844"/><stop stop-opacity="1" stop-color="rgb(20.861816%, 61.422729%, 91.523743%)" offset="0.59375"/><stop stop-opacity="1" stop-color="rgb(20.597839%, 61.64856%, 91.45813%)" offset="0.597656"/><stop stop-opacity="1" stop-color="rgb(20.333862%, 61.875916%, 91.392517%)" offset="0.601563"/><stop stop-opacity="1" stop-color="rgb(20.068359%, 62.103271%, 91.325378%)" offset="0.605469"/><stop stop-opacity="1" stop-color="rgb(19.804382%, 62.330627%, 91.259766%)" offset="0.609375"/><stop stop-opacity="1" stop-color="rgb(19.538879%, 62.556458%, 91.194153%)" offset="0.613281"/><stop stop-opacity="1" stop-color="rgb(19.274902%, 62.783813%, 91.12854%)" offset="0.617188"/><stop stop-opacity="1" stop-color="rgb(19.010925%, 63.011169%, 91.062927%)" offset="0.621094"/><stop stop-opacity="1" stop-color="rgb(18.746948%, 63.238525%, 90.997314%)" offset="0.625"/><stop stop-opacity="1" stop-color="rgb(18.481445%, 63.465881%, 90.931702%)" offset="0.628906"/><stop stop-opacity="1" stop-color="rgb(18.217468%, 63.693237%, 90.866089%)" offset="0.632813"/><stop stop-opacity="1" stop-color="rgb(17.953491%, 63.919067%, 90.79895%)" offset="0.636719"/><stop stop-opacity="1" stop-color="rgb(17.689514%, 64.146423%, 90.733337%)" offset="0.640625"/><stop stop-opacity="1" stop-color="rgb(17.424011%, 64.373779%, 90.667725%)" offset="0.644531"/><stop stop-opacity="1" stop-color="rgb(17.160034%, 64.601135%, 90.602112%)" offset="0.648438"/><stop stop-opacity="1" stop-color="rgb(16.896057%, 64.826965%, 90.536499%)" offset="0.652344"/><stop stop-opacity="1" stop-color="rgb(16.63208%, 65.054321%, 90.470886%)" offset="0.65625"/><stop stop-opacity="1" stop-color="rgb(16.366577%, 65.281677%, 90.403748%)" offset="0.660156"/><stop stop-opacity="1" stop-color="rgb(16.1026%, 65.509033%, 90.338135%)" offset="0.664063"/><stop stop-opacity="1" stop-color="rgb(15.837097%, 65.734863%, 90.272522%)" offset="0.667969"/><stop stop-opacity="1" stop-color="rgb(15.57312%, 65.962219%, 90.206909%)" offset="0.671875"/><stop stop-opacity="1" stop-color="rgb(15.309143%, 66.189575%, 90.141296%)" offset="0.675781"/><stop stop-opacity="1" stop-color="rgb(15.045166%, 66.416931%, 90.075684%)" offset="0.679688"/><stop stop-opacity="1" stop-color="rgb(14.779663%, 66.642761%, 90.008545%)" offset="0.683594"/><stop stop-opacity="1" stop-color="rgb(14.515686%, 66.870117%, 89.942932%)" offset="0.6875"/><stop stop-opacity="1" stop-color="rgb(14.251709%, 67.097473%, 89.877319%)" offset="0.691406"/><stop stop-opacity="1" stop-color="rgb(13.987732%, 67.324829%, 89.811707%)" offset="0.695313"/><stop stop-opacity="1" stop-color="rgb(13.722229%, 67.552185%, 89.746094%)" offset="0.699219"/><stop stop-opacity="1" stop-color="rgb(13.458252%, 67.779541%, 89.680481%)" offset="0.703125"/><stop stop-opacity="1" stop-color="rgb(13.194275%, 68.005371%, 89.614868%)" offset="0.707031"/><stop stop-opacity="1" stop-color="rgb(12.930298%, 68.232727%, 89.549255%)" offset="0.710938"/><stop stop-opacity="1" stop-color="rgb(12.664795%, 68.460083%, 89.482117%)" offset="0.714844"/><stop stop-opacity="1" stop-color="rgb(12.400818%, 68.687439%, 89.416504%)" offset="0.71875"/><stop stop-opacity="1" stop-color="rgb(12.135315%, 68.913269%, 89.350891%)" offset="0.722656"/><stop stop-opacity="1" stop-color="rgb(11.871338%, 69.140625%, 89.285278%)" offset="0.726563"/><stop stop-opacity="1" stop-color="rgb(11.607361%, 69.367981%, 89.219666%)" offset="0.730469"/><stop stop-opacity="1" stop-color="rgb(11.343384%, 69.595337%, 89.154053%)" offset="0.734375"/><stop stop-opacity="1" stop-color="rgb(11.077881%, 69.821167%, 89.086914%)" offset="0.738281"/><stop stop-opacity="1" stop-color="rgb(10.813904%, 70.048523%, 89.021301%)" offset="0.742188"/><stop stop-opacity="1" stop-color="rgb(10.549927%, 70.275879%, 88.955688%)" offset="0.746094"/><stop stop-opacity="1" stop-color="rgb(10.28595%, 70.503235%, 88.890076%)" offset="0.75"/><stop stop-opacity="1" stop-color="rgb(10.020447%, 70.729065%, 88.824463%)" offset="0.753906"/><stop stop-opacity="1" stop-color="rgb(9.75647%, 70.956421%, 88.75885%)" offset="0.757813"/><stop stop-opacity="1" stop-color="rgb(9.492493%, 71.183777%, 88.693237%)" offset="0.761719"/><stop stop-opacity="1" stop-color="rgb(9.228516%, 71.411133%, 88.627625%)" offset="0.765625"/><stop stop-opacity="1" stop-color="rgb(8.963013%, 71.638489%, 88.560486%)" offset="0.769531"/><stop stop-opacity="1" stop-color="rgb(8.699036%, 71.865845%, 88.494873%)" offset="0.773438"/><stop stop-opacity="1" stop-color="rgb(8.433533%, 72.091675%, 88.42926%)" offset="0.777344"/><stop stop-opacity="1" stop-color="rgb(8.169556%, 72.319031%, 88.363647%)" offset="0.78125"/><stop stop-opacity="1" stop-color="rgb(7.905579%, 72.546387%, 88.298035%)" offset="0.785156"/><stop stop-opacity="1" stop-color="rgb(7.641602%, 72.773743%, 88.232422%)" offset="0.789063"/><stop stop-opacity="1" stop-color="rgb(7.376099%, 72.999573%, 88.165283%)" offset="0.792969"/><stop stop-opacity="1" stop-color="rgb(7.112122%, 73.226929%, 88.09967%)" offset="0.796875"/><stop stop-opacity="1" stop-color="rgb(6.848145%, 73.454285%, 88.034058%)" offset="0.800781"/><stop stop-opacity="1" stop-color="rgb(6.584167%, 73.681641%, 87.968445%)" offset="0.804688"/><stop stop-opacity="1" stop-color="rgb(6.318665%, 73.907471%, 87.902832%)" offset="0.808594"/><stop stop-opacity="1" stop-color="rgb(6.054688%, 74.134827%, 87.837219%)" offset="0.8125"/><stop stop-opacity="1" stop-color="rgb(5.79071%, 74.362183%, 87.770081%)" offset="0.816406"/><stop stop-opacity="1" stop-color="rgb(5.526733%, 74.589539%, 87.704468%)" offset="0.820312"/><stop stop-opacity="1" stop-color="rgb(5.26123%, 74.815369%, 87.638855%)" offset="0.824219"/><stop stop-opacity="1" stop-color="rgb(4.997253%, 75.042725%, 87.573242%)" offset="0.828125"/><stop stop-opacity="1" stop-color="rgb(4.847717%, 75.170898%, 87.536621%)" offset="0.84375"/><stop stop-opacity="1" stop-color="rgb(4.699707%, 75.299072%, 87.5%)" offset="0.875"/><stop stop-opacity="1" stop-color="rgb(4.699707%, 75.299072%, 87.5%)" offset="1"/></linearGradient></defs><g fill="#8c52ff" fill-opacity="1"><g transform="translate(26.7836, 180.20535)"><g><path d="M 5.125 0.1875 C 4.664062 0.1875 4.28125 0.03125 3.96875 -0.28125 C 3.65625 -0.59375 3.5 -0.976562 3.5 -1.4375 L 3.5 -22.984375 C 3.5 -23.628906 3.726562 -24.1875 4.1875 -24.65625 C 4.644531 -25.125 5.195312 -25.359375 5.84375 -25.359375 L 6.3125 -25.359375 C 7.082031 -25.359375 7.742188 -25 8.296875 -24.28125 L 22.1875 -4.21875 L 22.1875 -23.703125 C 22.1875 -24.160156 22.34375 -24.550781 22.65625 -24.875 C 22.96875 -25.195312 23.351562 -25.359375 23.8125 -25.359375 C 24.269531 -25.359375 24.660156 -25.195312 24.984375 -24.875 C 25.304688 -24.550781 25.46875 -24.160156 25.46875 -23.703125 L 25.46875 -2.171875 C 25.46875 -1.515625 25.234375 -0.957031 24.765625 -0.5 C 24.296875 -0.0390625 23.738281 0.1875 23.09375 0.1875 L 22.65625 0.1875 C 22.269531 0.1875 21.90625 0.0976562 21.5625 -0.078125 C 21.226562 -0.265625 20.957031 -0.503906 20.75 -0.796875 L 6.78125 -20.96875 L 6.78125 -1.4375 C 6.78125 -0.976562 6.617188 -0.59375 6.296875 -0.28125 C 5.972656 0.03125 5.582031 0.1875 5.125 0.1875 Z M 5.125 0.1875 "/></g></g></g><g fill="#8c52ff" fill-opacity="1"><g transform="translate(55.747707, 180.20535)"><g><path d="M 5.125 0.1875 C 4.664062 0.1875 4.28125 0.03125 3.96875 -0.28125 C 3.65625 -0.59375 3.5 -0.976562 3.5 -1.4375 L 3.5 -22.984375 C 3.5 -23.628906 3.726562 -24.1875 4.1875 -24.65625 C 4.644531 -25.125 5.195312 -25.359375 5.84375 -25.359375 L 6.3125 -25.359375 C 7.082031 -25.359375 7.742188 -25 8.296875 -24.28125 L 22.1875 -4.21875 L 22.1875 -23.703125 C 22.1875 -24.160156 22.34375 -24.550781 22.65625 -24.875 C 22.96875 -25.195312 23.351562 -25.359375 23.8125 -25.359375 C 24.269531 -25.359375 24.660156 -25.195312 24.984375 -24.875 C 25.304688 -24.550781 25.46875 -24.160156 25.46875 -23.703125 L 25.46875 -2.171875 C 25.46875 -1.515625 25.234375 -0.957031 24.765625 -0.5 C 24.296875 -0.0390625 23.738281 0.1875 23.09375 0.1875 L 22.65625 0.1875 C 22.269531 0.1875 21.90625 0.0976562 21.5625 -0.078125 C 21.226562 -0.265625 20.957031 -0.503906 20.75 -0.796875 L 6.78125 -20.96875 L 6.78125 -1.4375 C 6.78125 -0.976562 6.617188 -0.59375 6.296875 -0.28125 C 5.972656 0.03125 5.582031 0.1875 5.125 0.1875 Z M 5.125 0.1875 "/></g></g></g><g fill="#8c52ff" fill-opacity="1"><g transform="translate(84.711814, 180.20535)"><g><path d="M 10.96875 0.1875 C 10.507812 0.1875 10.125 0.03125 9.8125 -0.28125 C 9.5 -0.59375 9.34375 -0.976562 9.34375 -1.4375 L 9.34375 -22.109375 L 1.984375 -22.109375 C 1.546875 -22.109375 1.179688 -22.253906 0.890625 -22.546875 C 0.609375 -22.835938 0.46875 -23.195312 0.46875 -23.625 C 0.46875 -24.0625 0.609375 -24.429688 0.890625 -24.734375 C 1.179688 -25.035156 1.546875 -25.1875 1.984375 -25.1875 L 19.953125 -25.1875 C 20.378906 -25.1875 20.742188 -25.035156 21.046875 -24.734375 C 21.347656 -24.429688 21.5 -24.0625 21.5 -23.625 C 21.5 -23.195312 21.347656 -22.835938 21.046875 -22.546875 C 20.742188 -22.253906 20.378906 -22.109375 19.953125 -22.109375 L 12.625 -22.109375 L 12.625 -1.4375 C 12.625 -0.976562 12.460938 -0.59375 12.140625 -0.28125 C 11.816406 0.03125 11.425781 0.1875 10.96875 0.1875 Z M 10.96875 0.1875 "/></g></g></g><g fill="#8c52ff" fill-opacity="1"><g transform="translate(106.678378, 180.20535)"><g/></g></g><g fill="#8c52ff" fill-opacity="1"><g transform="translate(116.056546, 180.20535)"><g><path d="M 5.125 0 C 4.664062 0 4.28125 -0.15625 3.96875 -0.46875 C 3.65625 -0.78125 3.5 -1.164062 3.5 -1.625 L 3.5 -23.515625 C 3.5 -23.972656 3.65625 -24.363281 3.96875 -24.6875 C 4.28125 -25.019531 4.664062 -25.1875 5.125 -25.1875 L 19.59375 -25.1875 C 20.019531 -25.1875 20.382812 -25.035156 20.6875 -24.734375 C 20.988281 -24.429688 21.140625 -24.0625 21.140625 -23.625 C 21.140625 -23.195312 20.988281 -22.835938 20.6875 -22.546875 C 20.382812 -22.253906 20.019531 -22.109375 19.59375 -22.109375 L 6.78125 -22.109375 L 6.78125 -14.140625 L 18.296875 -14.140625 C 18.722656 -14.140625 19.085938 -13.988281 19.390625 -13.6875 C 19.691406 -13.382812 19.84375 -13.019531 19.84375 -12.59375 C 19.84375 -12.15625 19.691406 -11.789062 19.390625 -11.5 C 19.085938 -11.21875 18.722656 -11.078125 18.296875 -11.078125 L 6.78125 -11.078125 L 6.78125 -3.0625 L 19.59375 -3.0625 C 20.019531 -3.0625 20.382812 -2.910156 20.6875 -2.609375 C 20.988281 -2.316406 21.140625 -1.953125 21.140625 -1.515625 C 21.140625 -1.078125 20.988281 -0.710938 20.6875 -0.421875 C 20.382812 -0.140625 20.019531 0 19.59375 0 Z M 5.125 0 "/></g></g></g><g fill="#8c52ff" fill-opacity="1"><g transform="translate(139.069142, 180.20535)"><g><path d="M 3.109375 0.1875 C 2.691406 0.1875 2.332031 0.0351562 2.03125 -0.265625 C 1.738281 -0.566406 1.59375 -0.921875 1.59375 -1.328125 C 1.59375 -1.710938 1.695312 -2.050781 1.90625 -2.34375 L 10.25 -12.59375 L 1.984375 -22.765625 C 1.765625 -23.054688 1.65625 -23.394531 1.65625 -23.78125 C 1.65625 -24.238281 1.804688 -24.613281 2.109375 -24.90625 C 2.410156 -25.207031 2.789062 -25.359375 3.25 -25.359375 C 3.507812 -25.359375 3.757812 -25.296875 4 -25.171875 C 4.238281 -25.054688 4.429688 -24.90625 4.578125 -24.71875 L 12.1875 -15.046875 L 19.8125 -24.78125 C 20.070312 -25.164062 20.46875 -25.359375 21 -25.359375 C 21.425781 -25.359375 21.796875 -25.207031 22.109375 -24.90625 C 22.421875 -24.613281 22.578125 -24.25 22.578125 -23.8125 C 22.578125 -23.476562 22.484375 -23.175781 22.296875 -22.90625 L 13.96875 -12.625 L 22.296875 -2.375 C 22.515625 -2.132812 22.625 -1.820312 22.625 -1.4375 C 22.625 -0.976562 22.472656 -0.59375 22.171875 -0.28125 C 21.867188 0.03125 21.476562 0.1875 21 0.1875 C 20.46875 0.1875 20.035156 -0.0390625 19.703125 -0.5 L 11.984375 -10.203125 L 4.359375 -0.46875 C 4.003906 -0.03125 3.585938 0.1875 3.109375 0.1875 Z M 3.109375 0.1875 "/></g></g></g><g fill="#8c52ff" fill-opacity="1"><g transform="translate(163.272025, 180.20535)"><g><path d="M 5.125 0.1875 C 4.664062 0.1875 4.28125 0.03125 3.96875 -0.28125 C 3.65625 -0.59375 3.5 -0.976562 3.5 -1.4375 L 3.5 -23.515625 C 3.5 -23.972656 3.65625 -24.363281 3.96875 -24.6875 C 4.28125 -25.019531 4.664062 -25.1875 5.125 -25.1875 L 13.34375 -25.1875 C 15.632812 -25.1875 17.5 -24.800781 18.9375 -24.03125 C 20.382812 -23.257812 21.421875 -22.269531 22.046875 -21.0625 C 22.671875 -19.863281 22.984375 -18.566406 22.984375 -17.171875 C 22.984375 -15.773438 22.671875 -14.472656 22.046875 -13.265625 C 21.421875 -12.066406 20.382812 -11.082031 18.9375 -10.3125 C 17.5 -9.539062 15.632812 -9.15625 13.34375 -9.15625 L 6.78125 -9.15625 L 6.78125 -1.4375 C 6.78125 -0.976562 6.617188 -0.59375 6.296875 -0.28125 C 5.972656 0.03125 5.582031 0.1875 5.125 0.1875 Z M 13.03125 -12.265625 C 15.476562 -12.265625 17.203125 -12.734375 18.203125 -13.671875 C 19.203125 -14.609375 19.703125 -15.773438 19.703125 -17.171875 C 19.703125 -18.566406 19.203125 -19.734375 18.203125 -20.671875 C 17.203125 -21.609375 15.476562 -22.078125 13.03125 -22.078125 L 6.78125 -22.078125 L 6.78125 -12.265625 Z M 13.03125 -12.265625 "/></g></g></g><g fill="#8c52ff" fill-opacity="1"><g transform="translate(187.510984, 180.20535)"><g><path d="M 5.125 0.1875 C 4.664062 0.1875 4.28125 0.03125 3.96875 -0.28125 C 3.65625 -0.59375 3.5 -0.976562 3.5 -1.4375 L 3.5 -23.515625 C 3.5 -23.972656 3.65625 -24.363281 3.96875 -24.6875 C 4.28125 -25.019531 4.664062 -25.1875 5.125 -25.1875 L 13.53125 -25.1875 C 16.800781 -25.1875 19.253906 -24.507812 20.890625 -23.15625 C 22.523438 -21.8125 23.34375 -20.046875 23.34375 -17.859375 C 23.34375 -16.410156 22.9375 -15.09375 22.125 -13.90625 C 21.320312 -12.71875 20.148438 -11.859375 18.609375 -11.328125 C 20.347656 -10.867188 21.535156 -9.789062 22.171875 -8.09375 C 22.804688 -6.40625 23.125 -4.742188 23.125 -3.109375 L 23.125 -1.4375 C 23.125 -0.976562 22.96875 -0.59375 22.65625 -0.28125 C 22.34375 0.03125 21.957031 0.1875 21.5 0.1875 C 21 0.1875 20.597656 0.0351562 20.296875 -0.265625 C 19.992188 -0.566406 19.84375 -0.957031 19.84375 -1.4375 L 19.84375 -2.53125 C 19.84375 -3.726562 19.734375 -4.835938 19.515625 -5.859375 C 19.296875 -6.878906 18.773438 -7.789062 17.953125 -8.59375 C 17.140625 -9.40625 15.90625 -9.8125 14.25 -9.8125 L 6.78125 -9.8125 L 6.78125 -1.4375 C 6.78125 -0.976562 6.617188 -0.59375 6.296875 -0.28125 C 5.972656 0.03125 5.582031 0.1875 5.125 0.1875 Z M 13.3125 -12.921875 C 15.382812 -12.921875 17.023438 -13.328125 18.234375 -14.140625 C 19.453125 -14.960938 20.0625 -16.117188 20.0625 -17.609375 C 20.0625 -19.046875 19.535156 -20.148438 18.484375 -20.921875 C 17.441406 -21.691406 15.65625 -22.078125 13.125 -22.078125 L 6.78125 -22.078125 L 6.78125 -12.921875 Z M 13.3125 -12.921875 "/></g></g></g><g fill="#8c52ff" fill-opacity="1"><g transform="translate(213.192739, 180.20535)"><g><path d="M 5.125 0 C 4.664062 0 4.28125 -0.15625 3.96875 -0.46875 C 3.65625 -0.78125 3.5 -1.164062 3.5 -1.625 L 3.5 -23.515625 C 3.5 -23.972656 3.65625 -24.363281 3.96875 -24.6875 C 4.28125 -25.019531 4.664062 -25.1875 5.125 -25.1875 L 19.59375 -25.1875 C 20.019531 -25.1875 20.382812 -25.035156 20.6875 -24.734375 C 20.988281 -24.429688 21.140625 -24.0625 21.140625 -23.625 C 21.140625 -23.195312 20.988281 -22.835938 20.6875 -22.546875 C 20.382812 -22.253906 20.019531 -22.109375 19.59375 -22.109375 L 6.78125 -22.109375 L 6.78125 -14.140625 L 18.296875 -14.140625 C 18.722656 -14.140625 19.085938 -13.988281 19.390625 -13.6875 C 19.691406 -13.382812 19.84375 -13.019531 19.84375 -12.59375 C 19.84375 -12.15625 19.691406 -11.789062 19.390625 -11.5 C 19.085938 -11.21875 18.722656 -11.078125 18.296875 -11.078125 L 6.78125 -11.078125 L 6.78125 -3.0625 L 19.59375 -3.0625 C 20.019531 -3.0625 20.382812 -2.910156 20.6875 -2.609375 C 20.988281 -2.316406 21.140625 -1.953125 21.140625 -1.515625 C 21.140625 -1.078125 20.988281 -0.710938 20.6875 -0.421875 C 20.382812 -0.140625 20.019531 0 19.59375 0 Z M 5.125 0 "/></g></g></g><g fill="#8c52ff" fill-opacity="1"><g transform="translate(236.205335, 180.20535)"><g><path d="M 11.4375 0.359375 C 8.382812 0.359375 5.519531 -0.21875 2.84375 -1.375 C 2.5625 -1.488281 2.320312 -1.679688 2.125 -1.953125 C 1.9375 -2.234375 1.84375 -2.53125 1.84375 -2.84375 C 1.84375 -3.257812 1.976562 -3.613281 2.25 -3.90625 C 2.53125 -4.207031 2.882812 -4.359375 3.3125 -4.359375 C 3.5625 -4.359375 3.789062 -4.3125 4 -4.21875 C 6.21875 -3.226562 8.585938 -2.734375 11.109375 -2.734375 C 15.316406 -2.734375 17.421875 -4.117188 17.421875 -6.890625 C 17.421875 -7.609375 17.148438 -8.207031 16.609375 -8.6875 C 16.066406 -9.175781 15.398438 -9.554688 14.609375 -9.828125 C 13.816406 -10.109375 12.6875 -10.441406 11.21875 -10.828125 C 9.269531 -11.328125 7.691406 -11.8125 6.484375 -12.28125 C 5.285156 -12.75 4.253906 -13.453125 3.390625 -14.390625 C 2.523438 -15.328125 2.09375 -16.578125 2.09375 -18.140625 C 2.09375 -19.515625 2.453125 -20.757812 3.171875 -21.875 C 3.890625 -23 4.953125 -23.890625 6.359375 -24.546875 C 7.773438 -25.210938 9.46875 -25.546875 11.4375 -25.546875 C 14.082031 -25.546875 16.472656 -25.148438 18.609375 -24.359375 C 19.285156 -24.109375 19.625 -23.625 19.625 -22.90625 C 19.625 -22.519531 19.488281 -22.171875 19.21875 -21.859375 C 18.957031 -21.546875 18.613281 -21.390625 18.1875 -21.390625 C 18.039062 -21.390625 17.847656 -21.4375 17.609375 -21.53125 C 15.734375 -22.1875 13.796875 -22.515625 11.796875 -22.515625 C 9.898438 -22.515625 8.351562 -22.148438 7.15625 -21.421875 C 5.96875 -20.703125 5.375 -19.695312 5.375 -18.40625 C 5.375 -17.53125 5.65625 -16.820312 6.21875 -16.28125 C 6.789062 -15.75 7.503906 -15.332031 8.359375 -15.03125 C 9.210938 -14.726562 10.367188 -14.410156 11.828125 -14.078125 C 13.734375 -13.617188 15.269531 -13.160156 16.4375 -12.703125 C 17.601562 -12.242188 18.597656 -11.53125 19.421875 -10.5625 C 20.253906 -9.601562 20.671875 -8.304688 20.671875 -6.671875 C 20.671875 -5.328125 20.285156 -4.117188 19.515625 -3.046875 C 18.742188 -1.972656 17.660156 -1.132812 16.265625 -0.53125 C 14.867188 0.0625 13.257812 0.359375 11.4375 0.359375 Z M 11.4375 0.359375 "/></g></g></g><g fill="#8c52ff" fill-opacity="1"><g transform="translate(258.42438, 180.20535)"><g><path d="M 11.4375 0.359375 C 8.382812 0.359375 5.519531 -0.21875 2.84375 -1.375 C 2.5625 -1.488281 2.320312 -1.679688 2.125 -1.953125 C 1.9375 -2.234375 1.84375 -2.53125 1.84375 -2.84375 C 1.84375 -3.257812 1.976562 -3.613281 2.25 -3.90625 C 2.53125 -4.207031 2.882812 -4.359375 3.3125 -4.359375 C 3.5625 -4.359375 3.789062 -4.3125 4 -4.21875 C 6.21875 -3.226562 8.585938 -2.734375 11.109375 -2.734375 C 15.316406 -2.734375 17.421875 -4.117188 17.421875 -6.890625 C 17.421875 -7.609375 17.148438 -8.207031 16.609375 -8.6875 C 16.066406 -9.175781 15.398438 -9.554688 14.609375 -9.828125 C 13.816406 -10.109375 12.6875 -10.441406 11.21875 -10.828125 C 9.269531 -11.328125 7.691406 -11.8125 6.484375 -12.28125 C 5.285156 -12.75 4.253906 -13.453125 3.390625 -14.390625 C 2.523438 -15.328125 2.09375 -16.578125 2.09375 -18.140625 C 2.09375 -19.515625 2.453125 -20.757812 3.171875 -21.875 C 3.890625 -23 4.953125 -23.890625 6.359375 -24.546875 C 7.773438 -25.210938 9.46875 -25.546875 11.4375 -25.546875 C 14.082031 -25.546875 16.472656 -25.148438 18.609375 -24.359375 C 19.285156 -24.109375 19.625 -23.625 19.625 -22.90625 C 19.625 -22.519531 19.488281 -22.171875 19.21875 -21.859375 C 18.957031 -21.546875 18.613281 -21.390625 18.1875 -21.390625 C 18.039062 -21.390625 17.847656 -21.4375 17.609375 -21.53125 C 15.734375 -22.1875 13.796875 -22.515625 11.796875 -22.515625 C 9.898438 -22.515625 8.351562 -22.148438 7.15625 -21.421875 C 5.96875 -20.703125 5.375 -19.695312 5.375 -18.40625 C 5.375 -17.53125 5.65625 -16.820312 6.21875 -16.28125 C 6.789062 -15.75 7.503906 -15.332031 8.359375 -15.03125 C 9.210938 -14.726562 10.367188 -14.410156 11.828125 -14.078125 C 13.734375 -13.617188 15.269531 -13.160156 16.4375 -12.703125 C 17.601562 -12.242188 18.597656 -11.53125 19.421875 -10.5625 C 20.253906 -9.601562 20.671875 -8.304688 20.671875 -6.671875 C 20.671875 -5.328125 20.285156 -4.117188 19.515625 -3.046875 C 18.742188 -1.972656 17.660156 -1.132812 16.265625 -0.53125 C 14.867188 0.0625 13.257812 0.359375 11.4375 0.359375 Z M 11.4375 0.359375 "/></g></g></g><g fill="#8c52ff" fill-opacity="1"><g transform="translate(280.643426, 180.20535)"><g/></g></g><g fill="#8c52ff" fill-opacity="1"><g transform="translate(290.021595, 180.20535)"><g><path d="M 5.125 0.1875 C 4.664062 0.1875 4.28125 0.03125 3.96875 -0.28125 C 3.65625 -0.59375 3.5 -0.976562 3.5 -1.4375 L 3.5 -23.703125 C 3.5 -24.160156 3.65625 -24.550781 3.96875 -24.875 C 4.28125 -25.195312 4.664062 -25.359375 5.125 -25.359375 C 5.582031 -25.359375 5.972656 -25.195312 6.296875 -24.875 C 6.617188 -24.550781 6.78125 -24.160156 6.78125 -23.703125 L 6.78125 -1.4375 C 6.78125 -0.976562 6.617188 -0.59375 6.296875 -0.28125 C 5.972656 0.03125 5.582031 0.1875 5.125 0.1875 Z M 5.125 0.1875 "/></g></g></g><g fill="#8c52ff" fill-opacity="1"><g transform="translate(300.301517, 180.20535)"><g><path d="M 5.125 0.1875 C 4.664062 0.1875 4.28125 0.03125 3.96875 -0.28125 C 3.65625 -0.59375 3.5 -0.976562 3.5 -1.4375 L 3.5 -22.984375 C 3.5 -23.628906 3.726562 -24.1875 4.1875 -24.65625 C 4.644531 -25.125 5.195312 -25.359375 5.84375 -25.359375 L 6.3125 -25.359375 C 7.082031 -25.359375 7.742188 -25 8.296875 -24.28125 L 22.1875 -4.21875 L 22.1875 -23.703125 C 22.1875 -24.160156 22.34375 -24.550781 22.65625 -24.875 C 22.96875 -25.195312 23.351562 -25.359375 23.8125 -25.359375 C 24.269531 -25.359375 24.660156 -25.195312 24.984375 -24.875 C 25.304688 -24.550781 25.46875 -24.160156 25.46875 -23.703125 L 25.46875 -2.171875 C 25.46875 -1.515625 25.234375 -0.957031 24.765625 -0.5 C 24.296875 -0.0390625 23.738281 0.1875 23.09375 0.1875 L 22.65625 0.1875 C 22.269531 0.1875 21.90625 0.0976562 21.5625 -0.078125 C 21.226562 -0.265625 20.957031 -0.503906 20.75 -0.796875 L 6.78125 -20.96875 L 6.78125 -1.4375 C 6.78125 -0.976562 6.617188 -0.59375 6.296875 -0.28125 C 5.972656 0.03125 5.582031 0.1875 5.125 0.1875 Z M 5.125 0.1875 "/></g></g></g><g fill="#8c52ff" fill-opacity="1"><g transform="translate(329.265625, 180.20535)"><g><path d="M 14.609375 0.359375 C 12.203125 0.359375 10.039062 -0.160156 8.125 -1.203125 C 6.21875 -2.253906 4.71875 -3.757812 3.625 -5.71875 C 2.53125 -7.675781 1.984375 -9.96875 1.984375 -12.59375 C 1.984375 -15.21875 2.53125 -17.507812 3.625 -19.46875 C 4.71875 -21.425781 6.21875 -22.925781 8.125 -23.96875 C 10.039062 -25.019531 12.203125 -25.546875 14.609375 -25.546875 C 16.242188 -25.546875 17.703125 -25.351562 18.984375 -24.96875 C 20.273438 -24.582031 21.5625 -24.03125 22.84375 -23.3125 C 23.363281 -23.019531 23.625 -22.5625 23.625 -21.9375 C 23.625 -21.570312 23.492188 -21.25 23.234375 -20.96875 C 22.972656 -20.695312 22.625 -20.5625 22.1875 -20.5625 C 21.945312 -20.5625 21.726562 -20.609375 21.53125 -20.703125 C 20.476562 -21.253906 19.445312 -21.675781 18.4375 -21.96875 C 17.425781 -22.257812 16.257812 -22.40625 14.9375 -22.40625 C 12.863281 -22.40625 11.097656 -21.976562 9.640625 -21.125 C 8.191406 -20.269531 7.097656 -19.101562 6.359375 -17.625 C 5.628906 -16.144531 5.265625 -14.46875 5.265625 -12.59375 C 5.265625 -10.71875 5.628906 -9.039062 6.359375 -7.5625 C 7.097656 -6.082031 8.191406 -4.914062 9.640625 -4.0625 C 11.097656 -3.207031 12.863281 -2.78125 14.9375 -2.78125 C 16.257812 -2.78125 17.425781 -2.921875 18.4375 -3.203125 C 19.445312 -3.492188 20.476562 -3.914062 21.53125 -4.46875 C 21.726562 -4.570312 21.945312 -4.625 22.1875 -4.625 C 22.625 -4.625 22.972656 -4.488281 23.234375 -4.21875 C 23.492188 -3.957031 23.625 -3.632812 23.625 -3.25 C 23.625 -2.625 23.363281 -2.164062 22.84375 -1.875 C 21.5625 -1.15625 20.273438 -0.601562 18.984375 -0.21875 C 17.703125 0.164062 16.242188 0.359375 14.609375 0.359375 Z M 14.609375 0.359375 "/></g></g></g><g clip-path="url(#ab7e559a75)"><g clip-path="url(#c587a5b29d)"><path fill="url(#c9247fecb1)" d="M 119.761719 0.0078125 L 119.761719 149.324219 L 261.75 149.324219 L 261.75 0.0078125 Z M 119.761719 0.0078125 " fill-rule="nonzero"/></g></g><g fill="#0cc0df" fill-opacity="1"><g transform="translate(4.048189, 202.957866)"><g><path d="M 2.015625 0 C 1.835938 0 1.6875 -0.0625 1.5625 -0.1875 C 1.4375 -0.3125 1.375 -0.460938 1.375 -0.640625 L 1.375 -9.25 C 1.375 -9.425781 1.4375 -9.578125 1.5625 -9.703125 C 1.6875 -9.835938 1.835938 -9.90625 2.015625 -9.90625 L 5.359375 -9.90625 C 6.367188 -9.90625 7.148438 -9.671875 7.703125 -9.203125 C 8.265625 -8.742188 8.546875 -8.117188 8.546875 -7.328125 C 8.546875 -6.785156 8.414062 -6.332031 8.15625 -5.96875 C 7.894531 -5.601562 7.5625 -5.332031 7.15625 -5.15625 C 7.71875 -4.96875 8.179688 -4.675781 8.546875 -4.28125 C 8.910156 -3.882812 9.09375 -3.382812 9.09375 -2.78125 C 9.09375 -1.90625 8.796875 -1.222656 8.203125 -0.734375 C 7.617188 -0.242188 6.703125 0 5.453125 0 Z M 5.015625 -5.625 C 5.859375 -5.625 6.453125 -5.765625 6.796875 -6.046875 C 7.140625 -6.328125 7.3125 -6.722656 7.3125 -7.234375 C 7.3125 -7.679688 7.128906 -8.035156 6.765625 -8.296875 C 6.398438 -8.566406 5.898438 -8.703125 5.265625 -8.703125 L 2.671875 -8.703125 L 2.671875 -5.625 Z M 5.328125 -1.203125 C 6.242188 -1.203125 6.890625 -1.34375 7.265625 -1.625 C 7.648438 -1.914062 7.84375 -2.320312 7.84375 -2.84375 C 7.84375 -3.914062 7.003906 -4.453125 5.328125 -4.453125 L 2.671875 -4.453125 L 2.671875 -1.203125 Z M 5.328125 -1.203125 "/></g></g></g><g fill="#0cc0df" fill-opacity="1"><g transform="translate(13.877424, 202.957866)"><g><path d="M 5.375 0.140625 C 4.707031 0.140625 4.0625 0 3.4375 -0.28125 C 2.8125 -0.5625 2.300781 -0.992188 1.90625 -1.578125 C 1.507812 -2.160156 1.3125 -2.875 1.3125 -3.71875 L 1.3125 -9.328125 C 1.3125 -9.503906 1.367188 -9.65625 1.484375 -9.78125 C 1.609375 -9.90625 1.757812 -9.96875 1.9375 -9.96875 C 2.125 -9.96875 2.28125 -9.90625 2.40625 -9.78125 C 2.53125 -9.65625 2.59375 -9.503906 2.59375 -9.328125 L 2.59375 -3.671875 C 2.59375 -3.109375 2.722656 -2.625 2.984375 -2.21875 C 3.242188 -1.820312 3.585938 -1.523438 4.015625 -1.328125 C 4.441406 -1.128906 4.894531 -1.03125 5.375 -1.03125 C 5.851562 -1.03125 6.304688 -1.128906 6.734375 -1.328125 C 7.160156 -1.523438 7.503906 -1.820312 7.765625 -2.21875 C 8.023438 -2.625 8.15625 -3.109375 8.15625 -3.671875 L 8.15625 -9.328125 C 8.15625 -9.503906 8.21875 -9.65625 8.34375 -9.78125 C 8.46875 -9.90625 8.617188 -9.96875 8.796875 -9.96875 C 8.972656 -9.96875 9.125 -9.90625 9.25 -9.78125 C 9.382812 -9.65625 9.453125 -9.503906 9.453125 -9.328125 L 9.453125 -3.71875 C 9.453125 -2.875 9.25 -2.160156 8.84375 -1.578125 C 8.445312 -0.992188 7.9375 -0.5625 7.3125 -0.28125 C 6.695312 0 6.050781 0.140625 5.375 0.140625 Z M 5.375 0.140625 "/></g></g></g><g fill="#0cc0df" fill-opacity="1"><g transform="translate(24.628604, 202.957866)"><g><path d="M 4.5 0.140625 C 3.300781 0.140625 2.175781 -0.0859375 1.125 -0.546875 C 1.007812 -0.585938 0.910156 -0.660156 0.828125 -0.765625 C 0.753906 -0.878906 0.71875 -1 0.71875 -1.125 C 0.71875 -1.28125 0.769531 -1.414062 0.875 -1.53125 C 0.988281 -1.65625 1.132812 -1.71875 1.3125 -1.71875 C 1.40625 -1.71875 1.492188 -1.695312 1.578125 -1.65625 C 2.441406 -1.269531 3.375 -1.078125 4.375 -1.078125 C 6.03125 -1.078125 6.859375 -1.617188 6.859375 -2.703125 C 6.859375 -2.992188 6.75 -3.234375 6.53125 -3.421875 C 6.320312 -3.609375 6.0625 -3.753906 5.75 -3.859375 C 5.4375 -3.972656 4.988281 -4.101562 4.40625 -4.25 C 3.644531 -4.445312 3.023438 -4.640625 2.546875 -4.828125 C 2.078125 -5.015625 1.671875 -5.289062 1.328125 -5.65625 C 0.992188 -6.03125 0.828125 -6.523438 0.828125 -7.140625 C 0.828125 -7.671875 0.96875 -8.15625 1.25 -8.59375 C 1.53125 -9.039062 1.945312 -9.394531 2.5 -9.65625 C 3.050781 -9.914062 3.71875 -10.046875 4.5 -10.046875 C 5.539062 -10.046875 6.484375 -9.890625 7.328125 -9.578125 C 7.585938 -9.484375 7.71875 -9.296875 7.71875 -9.015625 C 7.71875 -8.859375 7.664062 -8.71875 7.5625 -8.59375 C 7.457031 -8.46875 7.320312 -8.40625 7.15625 -8.40625 C 7.09375 -8.40625 7.015625 -8.425781 6.921875 -8.46875 C 6.179688 -8.726562 5.421875 -8.859375 4.640625 -8.859375 C 3.890625 -8.859375 3.28125 -8.710938 2.8125 -8.421875 C 2.34375 -8.140625 2.109375 -7.742188 2.109375 -7.234375 C 2.109375 -6.890625 2.21875 -6.613281 2.4375 -6.40625 C 2.664062 -6.195312 2.945312 -6.03125 3.28125 -5.90625 C 3.613281 -5.789062 4.070312 -5.664062 4.65625 -5.53125 C 5.40625 -5.351562 6.007812 -5.171875 6.46875 -4.984375 C 6.925781 -4.804688 7.316406 -4.53125 7.640625 -4.15625 C 7.960938 -3.78125 8.125 -3.269531 8.125 -2.625 C 8.125 -2.09375 7.972656 -1.613281 7.671875 -1.1875 C 7.367188 -0.769531 6.941406 -0.441406 6.390625 -0.203125 C 5.847656 0.0234375 5.21875 0.140625 4.5 0.140625 Z M 4.5 0.140625 "/></g></g></g><g fill="#0cc0df" fill-opacity="1"><g transform="translate(33.365714, 202.957866)"><g><path d="M 2.015625 0.078125 C 1.835938 0.078125 1.6875 0.015625 1.5625 -0.109375 C 1.4375 -0.234375 1.375 -0.382812 1.375 -0.5625 L 1.375 -9.328125 C 1.375 -9.503906 1.4375 -9.65625 1.5625 -9.78125 C 1.6875 -9.90625 1.835938 -9.96875 2.015625 -9.96875 C 2.191406 -9.96875 2.34375 -9.90625 2.46875 -9.78125 C 2.601562 -9.65625 2.671875 -9.503906 2.671875 -9.328125 L 2.671875 -0.5625 C 2.671875 -0.382812 2.601562 -0.234375 2.46875 -0.109375 C 2.34375 0.015625 2.191406 0.078125 2.015625 0.078125 Z M 2.015625 0.078125 "/></g></g></g><g fill="#0cc0df" fill-opacity="1"><g transform="translate(37.408047, 202.957866)"><g><path d="M 2.015625 0.078125 C 1.835938 0.078125 1.6875 0.015625 1.5625 -0.109375 C 1.4375 -0.234375 1.375 -0.382812 1.375 -0.5625 L 1.375 -9.03125 C 1.375 -9.289062 1.460938 -9.507812 1.640625 -9.6875 C 1.828125 -9.875 2.046875 -9.96875 2.296875 -9.96875 L 2.484375 -9.96875 C 2.785156 -9.96875 3.046875 -9.828125 3.265625 -9.546875 L 8.71875 -1.65625 L 8.71875 -9.328125 C 8.71875 -9.503906 8.78125 -9.65625 8.90625 -9.78125 C 9.03125 -9.90625 9.179688 -9.96875 9.359375 -9.96875 C 9.546875 -9.96875 9.703125 -9.90625 9.828125 -9.78125 C 9.953125 -9.65625 10.015625 -9.503906 10.015625 -9.328125 L 10.015625 -0.84375 C 10.015625 -0.59375 9.921875 -0.375 9.734375 -0.1875 C 9.554688 -0.0078125 9.335938 0.078125 9.078125 0.078125 L 8.90625 0.078125 C 8.757812 0.078125 8.617188 0.0390625 8.484375 -0.03125 C 8.347656 -0.101562 8.238281 -0.195312 8.15625 -0.3125 L 2.671875 -8.25 L 2.671875 -0.5625 C 2.671875 -0.382812 2.601562 -0.234375 2.46875 -0.109375 C 2.34375 0.015625 2.191406 0.078125 2.015625 0.078125 Z M 2.015625 0.078125 "/></g></g></g><g fill="#0cc0df" fill-opacity="1"><g transform="translate(48.797477, 202.957866)"><g><path d="M 2.015625 0 C 1.835938 0 1.6875 -0.0625 1.5625 -0.1875 C 1.4375 -0.3125 1.375 -0.460938 1.375 -0.640625 L 1.375 -9.25 C 1.375 -9.425781 1.4375 -9.578125 1.5625 -9.703125 C 1.6875 -9.835938 1.835938 -9.90625 2.015625 -9.90625 L 7.703125 -9.90625 C 7.867188 -9.90625 8.007812 -9.84375 8.125 -9.71875 C 8.25 -9.601562 8.3125 -9.460938 8.3125 -9.296875 C 8.3125 -9.117188 8.25 -8.972656 8.125 -8.859375 C 8.007812 -8.753906 7.867188 -8.703125 7.703125 -8.703125 L 2.671875 -8.703125 L 2.671875 -5.5625 L 7.1875 -5.5625 C 7.363281 -5.5625 7.507812 -5.5 7.625 -5.375 C 7.738281 -5.257812 7.796875 -5.117188 7.796875 -4.953125 C 7.796875 -4.785156 7.738281 -4.644531 7.625 -4.53125 C 7.507812 -4.414062 7.363281 -4.359375 7.1875 -4.359375 L 2.671875 -4.359375 L 2.671875 -1.203125 L 7.703125 -1.203125 C 7.867188 -1.203125 8.007812 -1.140625 8.125 -1.015625 C 8.25 -0.898438 8.3125 -0.757812 8.3125 -0.59375 C 8.3125 -0.425781 8.25 -0.285156 8.125 -0.171875 C 8.007812 -0.0546875 7.867188 0 7.703125 0 Z M 2.015625 0 "/></g></g></g><g fill="#0cc0df" fill-opacity="1"><g transform="translate(57.846615, 202.957866)"><g><path d="M 4.5 0.140625 C 3.300781 0.140625 2.175781 -0.0859375 1.125 -0.546875 C 1.007812 -0.585938 0.910156 -0.660156 0.828125 -0.765625 C 0.753906 -0.878906 0.71875 -1 0.71875 -1.125 C 0.71875 -1.28125 0.769531 -1.414062 0.875 -1.53125 C 0.988281 -1.65625 1.132812 -1.71875 1.3125 -1.71875 C 1.40625 -1.71875 1.492188 -1.695312 1.578125 -1.65625 C 2.441406 -1.269531 3.375 -1.078125 4.375 -1.078125 C 6.03125 -1.078125 6.859375 -1.617188 6.859375 -2.703125 C 6.859375 -2.992188 6.75 -3.234375 6.53125 -3.421875 C 6.320312 -3.609375 6.0625 -3.753906 5.75 -3.859375 C 5.4375 -3.972656 4.988281 -4.101562 4.40625 -4.25 C 3.644531 -4.445312 3.023438 -4.640625 2.546875 -4.828125 C 2.078125 -5.015625 1.671875 -5.289062 1.328125 -5.65625 C 0.992188 -6.03125 0.828125 -6.523438 0.828125 -7.140625 C 0.828125 -7.671875 0.96875 -8.15625 1.25 -8.59375 C 1.53125 -9.039062 1.945312 -9.394531 2.5 -9.65625 C 3.050781 -9.914062 3.71875 -10.046875 4.5 -10.046875 C 5.539062 -10.046875 6.484375 -9.890625 7.328125 -9.578125 C 7.585938 -9.484375 7.71875 -9.296875 7.71875 -9.015625 C 7.71875 -8.859375 7.664062 -8.71875 7.5625 -8.59375 C 7.457031 -8.46875 7.320312 -8.40625 7.15625 -8.40625 C 7.09375 -8.40625 7.015625 -8.425781 6.921875 -8.46875 C 6.179688 -8.726562 5.421875 -8.859375 4.640625 -8.859375 C 3.890625 -8.859375 3.28125 -8.710938 2.8125 -8.421875 C 2.34375 -8.140625 2.109375 -7.742188 2.109375 -7.234375 C 2.109375 -6.890625 2.21875 -6.613281 2.4375 -6.40625 C 2.664062 -6.195312 2.945312 -6.03125 3.28125 -5.90625 C 3.613281 -5.789062 4.070312 -5.664062 4.65625 -5.53125 C 5.40625 -5.351562 6.007812 -5.171875 6.46875 -4.984375 C 6.925781 -4.804688 7.316406 -4.53125 7.640625 -4.15625 C 7.960938 -3.78125 8.125 -3.269531 8.125 -2.625 C 8.125 -2.09375 7.972656 -1.613281 7.671875 -1.1875 C 7.367188 -0.769531 6.941406 -0.441406 6.390625 -0.203125 C 5.847656 0.0234375 5.21875 0.140625 4.5 0.140625 Z M 4.5 0.140625 "/></g></g></g><g fill="#0cc0df" fill-opacity="1"><g transform="translate(66.583725, 202.957866)"><g><path d="M 4.5 0.140625 C 3.300781 0.140625 2.175781 -0.0859375 1.125 -0.546875 C 1.007812 -0.585938 0.910156 -0.660156 0.828125 -0.765625 C 0.753906 -0.878906 0.71875 -1 0.71875 -1.125 C 0.71875 -1.28125 0.769531 -1.414062 0.875 -1.53125 C 0.988281 -1.65625 1.132812 -1.71875 1.3125 -1.71875 C 1.40625 -1.71875 1.492188 -1.695312 1.578125 -1.65625 C 2.441406 -1.269531 3.375 -1.078125 4.375 -1.078125 C 6.03125 -1.078125 6.859375 -1.617188 6.859375 -2.703125 C 6.859375 -2.992188 6.75 -3.234375 6.53125 -3.421875 C 6.320312 -3.609375 6.0625 -3.753906 5.75 -3.859375 C 5.4375 -3.972656 4.988281 -4.101562 4.40625 -4.25 C 3.644531 -4.445312 3.023438 -4.640625 2.546875 -4.828125 C 2.078125 -5.015625 1.671875 -5.289062 1.328125 -5.65625 C 0.992188 -6.03125 0.828125 -6.523438 0.828125 -7.140625 C 0.828125 -7.671875 0.96875 -8.15625 1.25 -8.59375 C 1.53125 -9.039062 1.945312 -9.394531 2.5 -9.65625 C 3.050781 -9.914062 3.71875 -10.046875 4.5 -10.046875 C 5.539062 -10.046875 6.484375 -9.890625 7.328125 -9.578125 C 7.585938 -9.484375 7.71875 -9.296875 7.71875 -9.015625 C 7.71875 -8.859375 7.664062 -8.71875 7.5625 -8.59375 C 7.457031 -8.46875 7.320312 -8.40625 7.15625 -8.40625 C 7.09375 -8.40625 7.015625 -8.425781 6.921875 -8.46875 C 6.179688 -8.726562 5.421875 -8.859375 4.640625 -8.859375 C 3.890625 -8.859375 3.28125 -8.710938 2.8125 -8.421875 C 2.34375 -8.140625 2.109375 -7.742188 2.109375 -7.234375 C 2.109375 -6.890625 2.21875 -6.613281 2.4375 -6.40625 C 2.664062 -6.195312 2.945312 -6.03125 3.28125 -5.90625 C 3.613281 -5.789062 4.070312 -5.664062 4.65625 -5.53125 C 5.40625 -5.351562 6.007812 -5.171875 6.46875 -4.984375 C 6.925781 -4.804688 7.316406 -4.53125 7.640625 -4.15625 C 7.960938 -3.78125 8.125 -3.269531 8.125 -2.625 C 8.125 -2.09375 7.972656 -1.613281 7.671875 -1.1875 C 7.367188 -0.769531 6.941406 -0.441406 6.390625 -0.203125 C 5.847656 0.0234375 5.21875 0.140625 4.5 0.140625 Z M 4.5 0.140625 "/></g></g></g><g fill="#0cc0df" fill-opacity="1"><g transform="translate(75.320835, 202.957866)"><g/></g></g><g fill="#0cc0df" fill-opacity="1"><g transform="translate(79.008576, 202.957866)"><g><path d="M 2.015625 0.078125 C 1.835938 0.078125 1.6875 0.015625 1.5625 -0.109375 C 1.4375 -0.234375 1.375 -0.382812 1.375 -0.5625 L 1.375 -9.25 C 1.375 -9.425781 1.4375 -9.578125 1.5625 -9.703125 C 1.6875 -9.835938 1.835938 -9.90625 2.015625 -9.90625 L 5.25 -9.90625 C 6.144531 -9.90625 6.875 -9.753906 7.4375 -9.453125 C 8.007812 -9.148438 8.414062 -8.757812 8.65625 -8.28125 C 8.90625 -7.8125 9.03125 -7.300781 9.03125 -6.75 C 9.03125 -6.207031 8.90625 -5.695312 8.65625 -5.21875 C 8.414062 -4.75 8.007812 -4.363281 7.4375 -4.0625 C 6.875 -3.757812 6.144531 -3.609375 5.25 -3.609375 L 2.671875 -3.609375 L 2.671875 -0.5625 C 2.671875 -0.382812 2.601562 -0.234375 2.46875 -0.109375 C 2.34375 0.015625 2.191406 0.078125 2.015625 0.078125 Z M 5.125 -4.828125 C 6.082031 -4.828125 6.757812 -5.007812 7.15625 -5.375 C 7.550781 -5.75 7.75 -6.207031 7.75 -6.75 C 7.75 -7.300781 7.550781 -7.757812 7.15625 -8.125 C 6.757812 -8.5 6.082031 -8.6875 5.125 -8.6875 L 2.671875 -8.6875 L 2.671875 -4.828125 Z M 5.125 -4.828125 "/></g></g></g><g fill="#0cc0df" fill-opacity="1"><g transform="translate(88.539959, 202.957866)"><g><path d="M 2.015625 0.078125 C 1.835938 0.078125 1.6875 0.015625 1.5625 -0.109375 C 1.4375 -0.234375 1.375 -0.382812 1.375 -0.5625 L 1.375 -9.25 C 1.375 -9.425781 1.4375 -9.578125 1.5625 -9.703125 C 1.6875 -9.835938 1.835938 -9.90625 2.015625 -9.90625 L 5.328125 -9.90625 C 6.609375 -9.90625 7.566406 -9.640625 8.203125 -9.109375 C 8.847656 -8.578125 9.171875 -7.878906 9.171875 -7.015625 C 9.171875 -6.453125 9.015625 -5.9375 8.703125 -5.46875 C 8.390625 -5 7.929688 -4.660156 7.328125 -4.453125 C 8.003906 -4.273438 8.46875 -3.851562 8.71875 -3.1875 C 8.96875 -2.519531 9.09375 -1.863281 9.09375 -1.21875 L 9.09375 -0.5625 C 9.09375 -0.382812 9.03125 -0.234375 8.90625 -0.109375 C 8.78125 0.015625 8.628906 0.078125 8.453125 0.078125 C 8.253906 0.078125 8.09375 0.0195312 7.96875 -0.09375 C 7.851562 -0.21875 7.796875 -0.375 7.796875 -0.5625 L 7.796875 -1 C 7.796875 -1.46875 7.753906 -1.898438 7.671875 -2.296875 C 7.585938 -2.703125 7.382812 -3.0625 7.0625 -3.375 C 6.738281 -3.695312 6.253906 -3.859375 5.609375 -3.859375 L 2.671875 -3.859375 L 2.671875 -0.5625 C 2.671875 -0.382812 2.601562 -0.234375 2.46875 -0.109375 C 2.34375 0.015625 2.191406 0.078125 2.015625 0.078125 Z M 5.234375 -5.078125 C 6.046875 -5.078125 6.691406 -5.238281 7.171875 -5.5625 C 7.648438 -5.882812 7.890625 -6.335938 7.890625 -6.921875 C 7.890625 -7.492188 7.679688 -7.929688 7.265625 -8.234375 C 6.859375 -8.535156 6.160156 -8.6875 5.171875 -8.6875 L 2.671875 -8.6875 L 2.671875 -5.078125 Z M 5.234375 -5.078125 "/></g></g></g><g fill="#0cc0df" fill-opacity="1"><g transform="translate(98.638696, 202.957866)"><g><path d="M 5.765625 0.140625 C 4.765625 0.140625 3.890625 -0.0703125 3.140625 -0.5 C 2.398438 -0.9375 1.828125 -1.539062 1.421875 -2.3125 C 1.015625 -3.082031 0.800781 -3.960938 0.78125 -4.953125 C 0.800781 -5.941406 1.015625 -6.816406 1.421875 -7.578125 C 1.828125 -8.347656 2.398438 -8.953125 3.140625 -9.390625 C 3.890625 -9.828125 4.765625 -10.046875 5.765625 -10.046875 C 6.753906 -10.046875 7.617188 -9.828125 8.359375 -9.390625 C 9.109375 -8.953125 9.6875 -8.347656 10.09375 -7.578125 C 10.507812 -6.804688 10.722656 -5.929688 10.734375 -4.953125 C 10.722656 -3.960938 10.507812 -3.082031 10.09375 -2.3125 C 9.6875 -1.539062 9.109375 -0.9375 8.359375 -0.5 C 7.617188 -0.0703125 6.753906 0.140625 5.765625 0.140625 Z M 5.765625 -1.0625 C 6.515625 -1.0625 7.164062 -1.226562 7.71875 -1.5625 C 8.28125 -1.90625 8.707031 -2.367188 9 -2.953125 C 9.300781 -3.546875 9.453125 -4.210938 9.453125 -4.953125 C 9.453125 -5.691406 9.300781 -6.351562 9 -6.9375 C 8.707031 -7.519531 8.28125 -7.984375 7.71875 -8.328125 C 7.164062 -8.671875 6.515625 -8.84375 5.765625 -8.84375 C 4.992188 -8.84375 4.332031 -8.671875 3.78125 -8.328125 C 3.226562 -7.984375 2.804688 -7.519531 2.515625 -6.9375 C 2.222656 -6.351562 2.078125 -5.691406 2.078125 -4.953125 C 2.078125 -4.210938 2.222656 -3.546875 2.515625 -2.953125 C 2.804688 -2.367188 3.226562 -1.90625 3.78125 -1.5625 C 4.332031 -1.226562 4.992188 -1.0625 5.765625 -1.0625 Z M 5.765625 -1.0625 "/></g></g></g><g fill="#0cc0df" fill-opacity="1"><g transform="translate(110.155779, 202.957866)"><g><path d="M 5.75 0.140625 C 4.800781 0.140625 3.953125 -0.0625 3.203125 -0.46875 C 2.453125 -0.882812 1.859375 -1.476562 1.421875 -2.25 C 0.992188 -3.019531 0.78125 -3.921875 0.78125 -4.953125 C 0.78125 -5.984375 0.992188 -6.882812 1.421875 -7.65625 C 1.859375 -8.425781 2.453125 -9.015625 3.203125 -9.421875 C 3.953125 -9.835938 4.800781 -10.046875 5.75 -10.046875 C 6.382812 -10.046875 6.957031 -9.96875 7.46875 -9.8125 C 7.976562 -9.664062 8.484375 -9.453125 8.984375 -9.171875 C 9.191406 -9.054688 9.296875 -8.875 9.296875 -8.625 C 9.296875 -8.476562 9.242188 -8.351562 9.140625 -8.25 C 9.035156 -8.144531 8.894531 -8.09375 8.71875 -8.09375 C 8.625 -8.09375 8.539062 -8.109375 8.46875 -8.140625 C 8.050781 -8.359375 7.644531 -8.523438 7.25 -8.640625 C 6.851562 -8.753906 6.394531 -8.8125 5.875 -8.8125 C 5.0625 -8.8125 4.367188 -8.640625 3.796875 -8.296875 C 3.222656 -7.960938 2.789062 -7.503906 2.5 -6.921875 C 2.21875 -6.347656 2.078125 -5.691406 2.078125 -4.953125 C 2.078125 -4.210938 2.21875 -3.550781 2.5 -2.96875 C 2.789062 -2.382812 3.222656 -1.925781 3.796875 -1.59375 C 4.367188 -1.257812 5.0625 -1.09375 5.875 -1.09375 C 6.394531 -1.09375 6.851562 -1.148438 7.25 -1.265625 C 7.644531 -1.378906 8.050781 -1.546875 8.46875 -1.765625 C 8.539062 -1.796875 8.625 -1.8125 8.71875 -1.8125 C 8.894531 -1.8125 9.035156 -1.757812 9.140625 -1.65625 C 9.242188 -1.550781 9.296875 -1.425781 9.296875 -1.28125 C 9.296875 -1.03125 9.191406 -0.847656 8.984375 -0.734375 C 8.484375 -0.453125 7.976562 -0.234375 7.46875 -0.078125 C 6.957031 0.0664062 6.382812 0.140625 5.75 0.140625 Z M 5.75 0.140625 "/></g></g></g><g fill="#0cc0df" fill-opacity="1"><g transform="translate(120.013383, 202.957866)"><g><path d="M 2.015625 0 C 1.835938 0 1.6875 -0.0625 1.5625 -0.1875 C 1.4375 -0.3125 1.375 -0.460938 1.375 -0.640625 L 1.375 -9.25 C 1.375 -9.425781 1.4375 -9.578125 1.5625 -9.703125 C 1.6875 -9.835938 1.835938 -9.90625 2.015625 -9.90625 L 7.703125 -9.90625 C 7.867188 -9.90625 8.007812 -9.84375 8.125 -9.71875 C 8.25 -9.601562 8.3125 -9.460938 8.3125 -9.296875 C 8.3125 -9.117188 8.25 -8.972656 8.125 -8.859375 C 8.007812 -8.753906 7.867188 -8.703125 7.703125 -8.703125 L 2.671875 -8.703125 L 2.671875 -5.5625 L 7.1875 -5.5625 C 7.363281 -5.5625 7.507812 -5.5 7.625 -5.375 C 7.738281 -5.257812 7.796875 -5.117188 7.796875 -4.953125 C 7.796875 -4.785156 7.738281 -4.644531 7.625 -4.53125 C 7.507812 -4.414062 7.363281 -4.359375 7.1875 -4.359375 L 2.671875 -4.359375 L 2.671875 -1.203125 L 7.703125 -1.203125 C 7.867188 -1.203125 8.007812 -1.140625 8.125 -1.015625 C 8.25 -0.898438 8.3125 -0.757812 8.3125 -0.59375 C 8.3125 -0.425781 8.25 -0.285156 8.125 -0.171875 C 8.007812 -0.0546875 7.867188 0 7.703125 0 Z M 2.015625 0 "/></g></g></g><g fill="#0cc0df" fill-opacity="1"><g transform="translate(129.062521, 202.957866)"><g><path d="M 4.5 0.140625 C 3.300781 0.140625 2.175781 -0.0859375 1.125 -0.546875 C 1.007812 -0.585938 0.910156 -0.660156 0.828125 -0.765625 C 0.753906 -0.878906 0.71875 -1 0.71875 -1.125 C 0.71875 -1.28125 0.769531 -1.414062 0.875 -1.53125 C 0.988281 -1.65625 1.132812 -1.71875 1.3125 -1.71875 C 1.40625 -1.71875 1.492188 -1.695312 1.578125 -1.65625 C 2.441406 -1.269531 3.375 -1.078125 4.375 -1.078125 C 6.03125 -1.078125 6.859375 -1.617188 6.859375 -2.703125 C 6.859375 -2.992188 6.75 -3.234375 6.53125 -3.421875 C 6.320312 -3.609375 6.0625 -3.753906 5.75 -3.859375 C 5.4375 -3.972656 4.988281 -4.101562 4.40625 -4.25 C 3.644531 -4.445312 3.023438 -4.640625 2.546875 -4.828125 C 2.078125 -5.015625 1.671875 -5.289062 1.328125 -5.65625 C 0.992188 -6.03125 0.828125 -6.523438 0.828125 -7.140625 C 0.828125 -7.671875 0.96875 -8.15625 1.25 -8.59375 C 1.53125 -9.039062 1.945312 -9.394531 2.5 -9.65625 C 3.050781 -9.914062 3.71875 -10.046875 4.5 -10.046875 C 5.539062 -10.046875 6.484375 -9.890625 7.328125 -9.578125 C 7.585938 -9.484375 7.71875 -9.296875 7.71875 -9.015625 C 7.71875 -8.859375 7.664062 -8.71875 7.5625 -8.59375 C 7.457031 -8.46875 7.320312 -8.40625 7.15625 -8.40625 C 7.09375 -8.40625 7.015625 -8.425781 6.921875 -8.46875 C 6.179688 -8.726562 5.421875 -8.859375 4.640625 -8.859375 C 3.890625 -8.859375 3.28125 -8.710938 2.8125 -8.421875 C 2.34375 -8.140625 2.109375 -7.742188 2.109375 -7.234375 C 2.109375 -6.890625 2.21875 -6.613281 2.4375 -6.40625 C 2.664062 -6.195312 2.945312 -6.03125 3.28125 -5.90625 C 3.613281 -5.789062 4.070312 -5.664062 4.65625 -5.53125 C 5.40625 -5.351562 6.007812 -5.171875 6.46875 -4.984375 C 6.925781 -4.804688 7.316406 -4.53125 7.640625 -4.15625 C 7.960938 -3.78125 8.125 -3.269531 8.125 -2.625 C 8.125 -2.09375 7.972656 -1.613281 7.671875 -1.1875 C 7.367188 -0.769531 6.941406 -0.441406 6.390625 -0.203125 C 5.847656 0.0234375 5.21875 0.140625 4.5 0.140625 Z M 4.5 0.140625 "/></g></g></g><g fill="#0cc0df" fill-opacity="1"><g transform="translate(137.799631, 202.957866)"><g><path d="M 4.5 0.140625 C 3.300781 0.140625 2.175781 -0.0859375 1.125 -0.546875 C 1.007812 -0.585938 0.910156 -0.660156 0.828125 -0.765625 C 0.753906 -0.878906 0.71875 -1 0.71875 -1.125 C 0.71875 -1.28125 0.769531 -1.414062 0.875 -1.53125 C 0.988281 -1.65625 1.132812 -1.71875 1.3125 -1.71875 C 1.40625 -1.71875 1.492188 -1.695312 1.578125 -1.65625 C 2.441406 -1.269531 3.375 -1.078125 4.375 -1.078125 C 6.03125 -1.078125 6.859375 -1.617188 6.859375 -2.703125 C 6.859375 -2.992188 6.75 -3.234375 6.53125 -3.421875 C 6.320312 -3.609375 6.0625 -3.753906 5.75 -3.859375 C 5.4375 -3.972656 4.988281 -4.101562 4.40625 -4.25 C 3.644531 -4.445312 3.023438 -4.640625 2.546875 -4.828125 C 2.078125 -5.015625 1.671875 -5.289062 1.328125 -5.65625 C 0.992188 -6.03125 0.828125 -6.523438 0.828125 -7.140625 C 0.828125 -7.671875 0.96875 -8.15625 1.25 -8.59375 C 1.53125 -9.039062 1.945312 -9.394531 2.5 -9.65625 C 3.050781 -9.914062 3.71875 -10.046875 4.5 -10.046875 C 5.539062 -10.046875 6.484375 -9.890625 7.328125 -9.578125 C 7.585938 -9.484375 7.71875 -9.296875 7.71875 -9.015625 C 7.71875 -8.859375 7.664062 -8.71875 7.5625 -8.59375 C 7.457031 -8.46875 7.320312 -8.40625 7.15625 -8.40625 C 7.09375 -8.40625 7.015625 -8.425781 6.921875 -8.46875 C 6.179688 -8.726562 5.421875 -8.859375 4.640625 -8.859375 C 3.890625 -8.859375 3.28125 -8.710938 2.8125 -8.421875 C 2.34375 -8.140625 2.109375 -7.742188 2.109375 -7.234375 C 2.109375 -6.890625 2.21875 -6.613281 2.4375 -6.40625 C 2.664062 -6.195312 2.945312 -6.03125 3.28125 -5.90625 C 3.613281 -5.789062 4.070312 -5.664062 4.65625 -5.53125 C 5.40625 -5.351562 6.007812 -5.171875 6.46875 -4.984375 C 6.925781 -4.804688 7.316406 -4.53125 7.640625 -4.15625 C 7.960938 -3.78125 8.125 -3.269531 8.125 -2.625 C 8.125 -2.09375 7.972656 -1.613281 7.671875 -1.1875 C 7.367188 -0.769531 6.941406 -0.441406 6.390625 -0.203125 C 5.847656 0.0234375 5.21875 0.140625 4.5 0.140625 Z M 4.5 0.140625 "/></g></g></g><g fill="#0cc0df" fill-opacity="1"><g transform="translate(146.536741, 202.957866)"><g/></g></g><g fill="#0cc0df" fill-opacity="1"><g transform="translate(150.224483, 202.957866)"><g><path d="M 5.765625 0.140625 C 4.765625 0.140625 3.890625 -0.0703125 3.140625 -0.5 C 2.398438 -0.9375 1.828125 -1.539062 1.421875 -2.3125 C 1.015625 -3.082031 0.800781 -3.960938 0.78125 -4.953125 C 0.800781 -5.941406 1.015625 -6.816406 1.421875 -7.578125 C 1.828125 -8.347656 2.398438 -8.953125 3.140625 -9.390625 C 3.890625 -9.828125 4.765625 -10.046875 5.765625 -10.046875 C 6.753906 -10.046875 7.617188 -9.828125 8.359375 -9.390625 C 9.109375 -8.953125 9.6875 -8.347656 10.09375 -7.578125 C 10.507812 -6.804688 10.722656 -5.929688 10.734375 -4.953125 C 10.722656 -3.960938 10.507812 -3.082031 10.09375 -2.3125 C 9.6875 -1.539062 9.109375 -0.9375 8.359375 -0.5 C 7.617188 -0.0703125 6.753906 0.140625 5.765625 0.140625 Z M 5.765625 -1.0625 C 6.515625 -1.0625 7.164062 -1.226562 7.71875 -1.5625 C 8.28125 -1.90625 8.707031 -2.367188 9 -2.953125 C 9.300781 -3.546875 9.453125 -4.210938 9.453125 -4.953125 C 9.453125 -5.691406 9.300781 -6.351562 9 -6.9375 C 8.707031 -7.519531 8.28125 -7.984375 7.71875 -8.328125 C 7.164062 -8.671875 6.515625 -8.84375 5.765625 -8.84375 C 4.992188 -8.84375 4.332031 -8.671875 3.78125 -8.328125 C 3.226562 -7.984375 2.804688 -7.519531 2.515625 -6.9375 C 2.222656 -6.351562 2.078125 -5.691406 2.078125 -4.953125 C 2.078125 -4.210938 2.222656 -3.546875 2.515625 -2.953125 C 2.804688 -2.367188 3.226562 -1.90625 3.78125 -1.5625 C 4.332031 -1.226562 4.992188 -1.0625 5.765625 -1.0625 Z M 5.765625 -1.0625 "/></g></g></g><g fill="#0cc0df" fill-opacity="1"><g transform="translate(161.741566, 202.957866)"><g><path d="M 5.375 0.140625 C 4.707031 0.140625 4.0625 0 3.4375 -0.28125 C 2.8125 -0.5625 2.300781 -0.992188 1.90625 -1.578125 C 1.507812 -2.160156 1.3125 -2.875 1.3125 -3.71875 L 1.3125 -9.328125 C 1.3125 -9.503906 1.367188 -9.65625 1.484375 -9.78125 C 1.609375 -9.90625 1.757812 -9.96875 1.9375 -9.96875 C 2.125 -9.96875 2.28125 -9.90625 2.40625 -9.78125 C 2.53125 -9.65625 2.59375 -9.503906 2.59375 -9.328125 L 2.59375 -3.671875 C 2.59375 -3.109375 2.722656 -2.625 2.984375 -2.21875 C 3.242188 -1.820312 3.585938 -1.523438 4.015625 -1.328125 C 4.441406 -1.128906 4.894531 -1.03125 5.375 -1.03125 C 5.851562 -1.03125 6.304688 -1.128906 6.734375 -1.328125 C 7.160156 -1.523438 7.503906 -1.820312 7.765625 -2.21875 C 8.023438 -2.625 8.15625 -3.109375 8.15625 -3.671875 L 8.15625 -9.328125 C 8.15625 -9.503906 8.21875 -9.65625 8.34375 -9.78125 C 8.46875 -9.90625 8.617188 -9.96875 8.796875 -9.96875 C 8.972656 -9.96875 9.125 -9.90625 9.25 -9.78125 C 9.382812 -9.65625 9.453125 -9.503906 9.453125 -9.328125 L 9.453125 -3.71875 C 9.453125 -2.875 9.25 -2.160156 8.84375 -1.578125 C 8.445312 -0.992188 7.9375 -0.5625 7.3125 -0.28125 C 6.695312 0 6.050781 0.140625 5.375 0.140625 Z M 5.375 0.140625 "/></g></g></g><g fill="#0cc0df" fill-opacity="1"><g transform="translate(172.492746, 202.957866)"><g><path d="M 4.3125 0.078125 C 4.132812 0.078125 3.984375 0.015625 3.859375 -0.109375 C 3.734375 -0.234375 3.671875 -0.382812 3.671875 -0.5625 L 3.671875 -8.703125 L 0.78125 -8.703125 C 0.613281 -8.703125 0.472656 -8.753906 0.359375 -8.859375 C 0.242188 -8.972656 0.1875 -9.117188 0.1875 -9.296875 C 0.1875 -9.460938 0.242188 -9.601562 0.359375 -9.71875 C 0.472656 -9.84375 0.613281 -9.90625 0.78125 -9.90625 L 7.84375 -9.90625 C 8.007812 -9.90625 8.148438 -9.84375 8.265625 -9.71875 C 8.390625 -9.601562 8.453125 -9.460938 8.453125 -9.296875 C 8.453125 -9.117188 8.390625 -8.972656 8.265625 -8.859375 C 8.148438 -8.753906 8.007812 -8.703125 7.84375 -8.703125 L 4.96875 -8.703125 L 4.96875 -0.5625 C 4.96875 -0.382812 4.898438 -0.234375 4.765625 -0.109375 C 4.640625 0.015625 4.488281 0.078125 4.3125 0.078125 Z M 4.3125 0.078125 "/></g></g></g><g fill="#0cc0df" fill-opacity="1"><g transform="translate(181.130554, 202.957866)"><g><path d="M 4.5 0.140625 C 3.300781 0.140625 2.175781 -0.0859375 1.125 -0.546875 C 1.007812 -0.585938 0.910156 -0.660156 0.828125 -0.765625 C 0.753906 -0.878906 0.71875 -1 0.71875 -1.125 C 0.71875 -1.28125 0.769531 -1.414062 0.875 -1.53125 C 0.988281 -1.65625 1.132812 -1.71875 1.3125 -1.71875 C 1.40625 -1.71875 1.492188 -1.695312 1.578125 -1.65625 C 2.441406 -1.269531 3.375 -1.078125 4.375 -1.078125 C 6.03125 -1.078125 6.859375 -1.617188 6.859375 -2.703125 C 6.859375 -2.992188 6.75 -3.234375 6.53125 -3.421875 C 6.320312 -3.609375 6.0625 -3.753906 5.75 -3.859375 C 5.4375 -3.972656 4.988281 -4.101562 4.40625 -4.25 C 3.644531 -4.445312 3.023438 -4.640625 2.546875 -4.828125 C 2.078125 -5.015625 1.671875 -5.289062 1.328125 -5.65625 C 0.992188 -6.03125 0.828125 -6.523438 0.828125 -7.140625 C 0.828125 -7.671875 0.96875 -8.15625 1.25 -8.59375 C 1.53125 -9.039062 1.945312 -9.394531 2.5 -9.65625 C 3.050781 -9.914062 3.71875 -10.046875 4.5 -10.046875 C 5.539062 -10.046875 6.484375 -9.890625 7.328125 -9.578125 C 7.585938 -9.484375 7.71875 -9.296875 7.71875 -9.015625 C 7.71875 -8.859375 7.664062 -8.71875 7.5625 -8.59375 C 7.457031 -8.46875 7.320312 -8.40625 7.15625 -8.40625 C 7.09375 -8.40625 7.015625 -8.425781 6.921875 -8.46875 C 6.179688 -8.726562 5.421875 -8.859375 4.640625 -8.859375 C 3.890625 -8.859375 3.28125 -8.710938 2.8125 -8.421875 C 2.34375 -8.140625 2.109375 -7.742188 2.109375 -7.234375 C 2.109375 -6.890625 2.21875 -6.613281 2.4375 -6.40625 C 2.664062 -6.195312 2.945312 -6.03125 3.28125 -5.90625 C 3.613281 -5.789062 4.070312 -5.664062 4.65625 -5.53125 C 5.40625 -5.351562 6.007812 -5.171875 6.46875 -4.984375 C 6.925781 -4.804688 7.316406 -4.53125 7.640625 -4.15625 C 7.960938 -3.78125 8.125 -3.269531 8.125 -2.625 C 8.125 -2.09375 7.972656 -1.613281 7.671875 -1.1875 C 7.367188 -0.769531 6.941406 -0.441406 6.390625 -0.203125 C 5.847656 0.0234375 5.21875 0.140625 4.5 0.140625 Z M 4.5 0.140625 "/></g></g></g><g fill="#0cc0df" fill-opacity="1"><g transform="translate(189.867664, 202.957866)"><g><path d="M 5.765625 0.140625 C 4.765625 0.140625 3.890625 -0.0703125 3.140625 -0.5 C 2.398438 -0.9375 1.828125 -1.539062 1.421875 -2.3125 C 1.015625 -3.082031 0.800781 -3.960938 0.78125 -4.953125 C 0.800781 -5.941406 1.015625 -6.816406 1.421875 -7.578125 C 1.828125 -8.347656 2.398438 -8.953125 3.140625 -9.390625 C 3.890625 -9.828125 4.765625 -10.046875 5.765625 -10.046875 C 6.753906 -10.046875 7.617188 -9.828125 8.359375 -9.390625 C 9.109375 -8.953125 9.6875 -8.347656 10.09375 -7.578125 C 10.507812 -6.804688 10.722656 -5.929688 10.734375 -4.953125 C 10.722656 -3.960938 10.507812 -3.082031 10.09375 -2.3125 C 9.6875 -1.539062 9.109375 -0.9375 8.359375 -0.5 C 7.617188 -0.0703125 6.753906 0.140625 5.765625 0.140625 Z M 5.765625 -1.0625 C 6.515625 -1.0625 7.164062 -1.226562 7.71875 -1.5625 C 8.28125 -1.90625 8.707031 -2.367188 9 -2.953125 C 9.300781 -3.546875 9.453125 -4.210938 9.453125 -4.953125 C 9.453125 -5.691406 9.300781 -6.351562 9 -6.9375 C 8.707031 -7.519531 8.28125 -7.984375 7.71875 -8.328125 C 7.164062 -8.671875 6.515625 -8.84375 5.765625 -8.84375 C 4.992188 -8.84375 4.332031 -8.671875 3.78125 -8.328125 C 3.226562 -7.984375 2.804688 -7.519531 2.515625 -6.9375 C 2.222656 -6.351562 2.078125 -5.691406 2.078125 -4.953125 C 2.078125 -4.210938 2.222656 -3.546875 2.515625 -2.953125 C 2.804688 -2.367188 3.226562 -1.90625 3.78125 -1.5625 C 4.332031 -1.226562 4.992188 -1.0625 5.765625 -1.0625 Z M 5.765625 -1.0625 "/></g></g></g><g fill="#0cc0df" fill-opacity="1"><g transform="translate(201.384747, 202.957866)"><g><path d="M 5.375 0.140625 C 4.707031 0.140625 4.0625 0 3.4375 -0.28125 C 2.8125 -0.5625 2.300781 -0.992188 1.90625 -1.578125 C 1.507812 -2.160156 1.3125 -2.875 1.3125 -3.71875 L 1.3125 -9.328125 C 1.3125 -9.503906 1.367188 -9.65625 1.484375 -9.78125 C 1.609375 -9.90625 1.757812 -9.96875 1.9375 -9.96875 C 2.125 -9.96875 2.28125 -9.90625 2.40625 -9.78125 C 2.53125 -9.65625 2.59375 -9.503906 2.59375 -9.328125 L 2.59375 -3.671875 C 2.59375 -3.109375 2.722656 -2.625 2.984375 -2.21875 C 3.242188 -1.820312 3.585938 -1.523438 4.015625 -1.328125 C 4.441406 -1.128906 4.894531 -1.03125 5.375 -1.03125 C 5.851562 -1.03125 6.304688 -1.128906 6.734375 -1.328125 C 7.160156 -1.523438 7.503906 -1.820312 7.765625 -2.21875 C 8.023438 -2.625 8.15625 -3.109375 8.15625 -3.671875 L 8.15625 -9.328125 C 8.15625 -9.503906 8.21875 -9.65625 8.34375 -9.78125 C 8.46875 -9.90625 8.617188 -9.96875 8.796875 -9.96875 C 8.972656 -9.96875 9.125 -9.90625 9.25 -9.78125 C 9.382812 -9.65625 9.453125 -9.503906 9.453125 -9.328125 L 9.453125 -3.71875 C 9.453125 -2.875 9.25 -2.160156 8.84375 -1.578125 C 8.445312 -0.992188 7.9375 -0.5625 7.3125 -0.28125 C 6.695312 0 6.050781 0.140625 5.375 0.140625 Z M 5.375 0.140625 "/></g></g></g><g fill="#0cc0df" fill-opacity="1"><g transform="translate(212.135927, 202.957866)"><g><path d="M 2.015625 0.078125 C 1.835938 0.078125 1.6875 0.015625 1.5625 -0.109375 C 1.4375 -0.234375 1.375 -0.382812 1.375 -0.5625 L 1.375 -9.25 C 1.375 -9.425781 1.4375 -9.578125 1.5625 -9.703125 C 1.6875 -9.835938 1.835938 -9.90625 2.015625 -9.90625 L 5.328125 -9.90625 C 6.609375 -9.90625 7.566406 -9.640625 8.203125 -9.109375 C 8.847656 -8.578125 9.171875 -7.878906 9.171875 -7.015625 C 9.171875 -6.453125 9.015625 -5.9375 8.703125 -5.46875 C 8.390625 -5 7.929688 -4.660156 7.328125 -4.453125 C 8.003906 -4.273438 8.46875 -3.851562 8.71875 -3.1875 C 8.96875 -2.519531 9.09375 -1.863281 9.09375 -1.21875 L 9.09375 -0.5625 C 9.09375 -0.382812 9.03125 -0.234375 8.90625 -0.109375 C 8.78125 0.015625 8.628906 0.078125 8.453125 0.078125 C 8.253906 0.078125 8.09375 0.0195312 7.96875 -0.09375 C 7.851562 -0.21875 7.796875 -0.375 7.796875 -0.5625 L 7.796875 -1 C 7.796875 -1.46875 7.753906 -1.898438 7.671875 -2.296875 C 7.585938 -2.703125 7.382812 -3.0625 7.0625 -3.375 C 6.738281 -3.695312 6.253906 -3.859375 5.609375 -3.859375 L 2.671875 -3.859375 L 2.671875 -0.5625 C 2.671875 -0.382812 2.601562 -0.234375 2.46875 -0.109375 C 2.34375 0.015625 2.191406 0.078125 2.015625 0.078125 Z M 5.234375 -5.078125 C 6.046875 -5.078125 6.691406 -5.238281 7.171875 -5.5625 C 7.648438 -5.882812 7.890625 -6.335938 7.890625 -6.921875 C 7.890625 -7.492188 7.679688 -7.929688 7.265625 -8.234375 C 6.859375 -8.535156 6.160156 -8.6875 5.171875 -8.6875 L 2.671875 -8.6875 L 2.671875 -5.078125 Z M 5.234375 -5.078125 "/></g></g></g><g fill="#0cc0df" fill-opacity="1"><g transform="translate(222.234663, 202.957866)"><g><path d="M 5.75 0.140625 C 4.800781 0.140625 3.953125 -0.0625 3.203125 -0.46875 C 2.453125 -0.882812 1.859375 -1.476562 1.421875 -2.25 C 0.992188 -3.019531 0.78125 -3.921875 0.78125 -4.953125 C 0.78125 -5.984375 0.992188 -6.882812 1.421875 -7.65625 C 1.859375 -8.425781 2.453125 -9.015625 3.203125 -9.421875 C 3.953125 -9.835938 4.800781 -10.046875 5.75 -10.046875 C 6.382812 -10.046875 6.957031 -9.96875 7.46875 -9.8125 C 7.976562 -9.664062 8.484375 -9.453125 8.984375 -9.171875 C 9.191406 -9.054688 9.296875 -8.875 9.296875 -8.625 C 9.296875 -8.476562 9.242188 -8.351562 9.140625 -8.25 C 9.035156 -8.144531 8.894531 -8.09375 8.71875 -8.09375 C 8.625 -8.09375 8.539062 -8.109375 8.46875 -8.140625 C 8.050781 -8.359375 7.644531 -8.523438 7.25 -8.640625 C 6.851562 -8.753906 6.394531 -8.8125 5.875 -8.8125 C 5.0625 -8.8125 4.367188 -8.640625 3.796875 -8.296875 C 3.222656 -7.960938 2.789062 -7.503906 2.5 -6.921875 C 2.21875 -6.347656 2.078125 -5.691406 2.078125 -4.953125 C 2.078125 -4.210938 2.21875 -3.550781 2.5 -2.96875 C 2.789062 -2.382812 3.222656 -1.925781 3.796875 -1.59375 C 4.367188 -1.257812 5.0625 -1.09375 5.875 -1.09375 C 6.394531 -1.09375 6.851562 -1.148438 7.25 -1.265625 C 7.644531 -1.378906 8.050781 -1.546875 8.46875 -1.765625 C 8.539062 -1.796875 8.625 -1.8125 8.71875 -1.8125 C 8.894531 -1.8125 9.035156 -1.757812 9.140625 -1.65625 C 9.242188 -1.550781 9.296875 -1.425781 9.296875 -1.28125 C 9.296875 -1.03125 9.191406 -0.847656 8.984375 -0.734375 C 8.484375 -0.453125 7.976562 -0.234375 7.46875 -0.078125 C 6.957031 0.0664062 6.382812 0.140625 5.75 0.140625 Z M 5.75 0.140625 "/></g></g></g><g fill="#0cc0df" fill-opacity="1"><g transform="translate(232.092268, 202.957866)"><g><path d="M 2.015625 0.078125 C 1.835938 0.078125 1.6875 0.015625 1.5625 -0.109375 C 1.4375 -0.234375 1.375 -0.382812 1.375 -0.5625 L 1.375 -9.328125 C 1.375 -9.503906 1.4375 -9.65625 1.5625 -9.78125 C 1.6875 -9.90625 1.835938 -9.96875 2.015625 -9.96875 C 2.191406 -9.96875 2.34375 -9.90625 2.46875 -9.78125 C 2.601562 -9.65625 2.671875 -9.503906 2.671875 -9.328125 L 2.671875 -0.5625 C 2.671875 -0.382812 2.601562 -0.234375 2.46875 -0.109375 C 2.34375 0.015625 2.191406 0.078125 2.015625 0.078125 Z M 2.015625 0.078125 "/></g></g></g><g fill="#0cc0df" fill-opacity="1"><g transform="translate(236.134601, 202.957866)"><g><path d="M 2.015625 0.078125 C 1.835938 0.078125 1.6875 0.015625 1.5625 -0.109375 C 1.4375 -0.234375 1.375 -0.382812 1.375 -0.5625 L 1.375 -9.03125 C 1.375 -9.289062 1.460938 -9.507812 1.640625 -9.6875 C 1.828125 -9.875 2.046875 -9.96875 2.296875 -9.96875 L 2.484375 -9.96875 C 2.785156 -9.96875 3.046875 -9.828125 3.265625 -9.546875 L 8.71875 -1.65625 L 8.71875 -9.328125 C 8.71875 -9.503906 8.78125 -9.65625 8.90625 -9.78125 C 9.03125 -9.90625 9.179688 -9.96875 9.359375 -9.96875 C 9.546875 -9.96875 9.703125 -9.90625 9.828125 -9.78125 C 9.953125 -9.65625 10.015625 -9.503906 10.015625 -9.328125 L 10.015625 -0.84375 C 10.015625 -0.59375 9.921875 -0.375 9.734375 -0.1875 C 9.554688 -0.0078125 9.335938 0.078125 9.078125 0.078125 L 8.90625 0.078125 C 8.757812 0.078125 8.617188 0.0390625 8.484375 -0.03125 C 8.347656 -0.101562 8.238281 -0.195312 8.15625 -0.3125 L 2.671875 -8.25 L 2.671875 -0.5625 C 2.671875 -0.382812 2.601562 -0.234375 2.46875 -0.109375 C 2.34375 0.015625 2.191406 0.078125 2.015625 0.078125 Z M 2.015625 0.078125 "/></g></g></g><g fill="#0cc0df" fill-opacity="1"><g transform="translate(247.524031, 202.957866)"><g><path d="M 5.765625 0.140625 C 4.785156 0.140625 3.914062 -0.0703125 3.15625 -0.5 C 2.40625 -0.9375 1.820312 -1.539062 1.40625 -2.3125 C 0.988281 -3.082031 0.78125 -3.957031 0.78125 -4.9375 C 0.78125 -5.9375 0.992188 -6.820312 1.421875 -7.59375 C 1.859375 -8.375 2.453125 -8.976562 3.203125 -9.40625 C 3.960938 -9.832031 4.800781 -10.046875 5.71875 -10.046875 C 6.457031 -10.046875 7.101562 -9.953125 7.65625 -9.765625 C 8.207031 -9.585938 8.738281 -9.335938 9.25 -9.015625 C 9.320312 -8.984375 9.382812 -8.921875 9.4375 -8.828125 C 9.5 -8.734375 9.53125 -8.628906 9.53125 -8.515625 C 9.53125 -8.347656 9.472656 -8.207031 9.359375 -8.09375 C 9.253906 -7.988281 9.113281 -7.9375 8.9375 -7.9375 C 8.832031 -7.9375 8.734375 -7.957031 8.640625 -8 C 8.191406 -8.269531 7.742188 -8.46875 7.296875 -8.59375 C 6.859375 -8.726562 6.378906 -8.796875 5.859375 -8.796875 C 5.140625 -8.796875 4.488281 -8.644531 3.90625 -8.34375 C 3.332031 -8.039062 2.882812 -7.597656 2.5625 -7.015625 C 2.238281 -6.429688 2.078125 -5.738281 2.078125 -4.9375 C 2.078125 -4.195312 2.226562 -3.535156 2.53125 -2.953125 C 2.84375 -2.367188 3.285156 -1.910156 3.859375 -1.578125 C 4.441406 -1.242188 5.132812 -1.078125 5.9375 -1.078125 C 6.820312 -1.078125 7.644531 -1.285156 8.40625 -1.703125 L 8.40625 -4.265625 L 6.078125 -4.265625 C 5.910156 -4.265625 5.769531 -4.320312 5.65625 -4.4375 C 5.539062 -4.550781 5.484375 -4.691406 5.484375 -4.859375 C 5.484375 -5.015625 5.539062 -5.148438 5.65625 -5.265625 C 5.769531 -5.378906 5.910156 -5.4375 6.078125 -5.4375 L 8.875 -5.4375 C 9.0625 -5.4375 9.21875 -5.367188 9.34375 -5.234375 C 9.476562 -5.097656 9.546875 -4.9375 9.546875 -4.75 L 9.546875 -1.53125 C 9.546875 -1.332031 9.492188 -1.15625 9.390625 -1 C 9.296875 -0.84375 9.171875 -0.726562 9.015625 -0.65625 C 7.953125 -0.125 6.867188 0.140625 5.765625 0.140625 Z M 5.765625 0.140625 "/></g></g></g><g fill="#0cc0df" fill-opacity="1"><g transform="translate(258.261017, 202.957866)"><g/></g></g><g fill="#0cc0df" fill-opacity="1"><g transform="translate(261.948758, 202.957866)"><g><path d="M 4.484375 0.140625 C 3.691406 0.140625 3.035156 0.00390625 2.515625 -0.265625 C 1.992188 -0.546875 1.609375 -0.910156 1.359375 -1.359375 C 1.117188 -1.804688 1 -2.28125 1 -2.78125 C 1 -3.425781 1.164062 -3.976562 1.5 -4.4375 C 1.84375 -4.894531 2.210938 -5.25 2.609375 -5.5 C 2.328125 -5.84375 2.113281 -6.171875 1.96875 -6.484375 C 1.820312 -6.796875 1.75 -7.15625 1.75 -7.5625 C 1.75 -8.019531 1.851562 -8.4375 2.0625 -8.8125 C 2.28125 -9.1875 2.585938 -9.484375 2.984375 -9.703125 C 3.390625 -9.929688 3.859375 -10.046875 4.390625 -10.046875 C 5.023438 -10.046875 5.65625 -9.835938 6.28125 -9.421875 C 6.351562 -9.378906 6.414062 -9.316406 6.46875 -9.234375 C 6.519531 -9.160156 6.546875 -9.082031 6.546875 -9 C 6.546875 -8.863281 6.492188 -8.742188 6.390625 -8.640625 C 6.296875 -8.546875 6.179688 -8.5 6.046875 -8.5 C 5.972656 -8.5 5.882812 -8.519531 5.78125 -8.5625 C 5.332031 -8.8125 4.890625 -8.9375 4.453125 -8.9375 C 3.984375 -8.9375 3.613281 -8.804688 3.34375 -8.546875 C 3.070312 -8.285156 2.9375 -7.984375 2.9375 -7.640625 C 2.9375 -7.359375 2.976562 -7.113281 3.0625 -6.90625 C 3.15625 -6.695312 3.289062 -6.492188 3.46875 -6.296875 C 3.65625 -6.097656 3.953125 -5.8125 4.359375 -5.4375 L 7.328125 -2.640625 C 7.453125 -2.828125 7.601562 -3.113281 7.78125 -3.5 C 7.832031 -3.601562 7.90625 -3.6875 8 -3.75 C 8.101562 -3.820312 8.21875 -3.859375 8.34375 -3.859375 C 8.507812 -3.859375 8.648438 -3.800781 8.765625 -3.6875 C 8.878906 -3.582031 8.9375 -3.445312 8.9375 -3.28125 C 8.9375 -3.1875 8.914062 -3.09375 8.875 -3 C 8.675781 -2.59375 8.445312 -2.203125 8.1875 -1.828125 L 9.140625 -0.921875 C 9.210938 -0.859375 9.265625 -0.789062 9.296875 -0.71875 C 9.335938 -0.65625 9.359375 -0.570312 9.359375 -0.46875 C 9.359375 -0.3125 9.304688 -0.175781 9.203125 -0.0625 C 9.097656 0.0507812 8.957031 0.109375 8.78125 0.109375 C 8.613281 0.109375 8.46875 0.0507812 8.34375 -0.0625 L 7.390625 -0.96875 C 6.984375 -0.625 6.535156 -0.351562 6.046875 -0.15625 C 5.554688 0.0390625 5.035156 0.140625 4.484375 0.140625 Z M 4.375 -0.953125 C 5.175781 -0.953125 5.898438 -1.21875 6.546875 -1.75 L 3.390625 -4.703125 C 3.066406 -4.492188 2.789062 -4.222656 2.5625 -3.890625 C 2.34375 -3.566406 2.234375 -3.179688 2.234375 -2.734375 C 2.234375 -2.210938 2.4375 -1.785156 2.84375 -1.453125 C 3.257812 -1.117188 3.769531 -0.953125 4.375 -0.953125 Z M 4.375 -0.953125 "/></g></g></g><g fill="#0cc0df" fill-opacity="1"><g transform="translate(272.331153, 202.957866)"><g/></g></g><g fill="#0cc0df" fill-opacity="1"><g transform="translate(276.018895, 202.957866)"><g><path d="M 2.015625 0.078125 C 1.835938 0.078125 1.6875 0.015625 1.5625 -0.109375 C 1.4375 -0.234375 1.375 -0.382812 1.375 -0.5625 L 1.375 -9.328125 C 1.375 -9.503906 1.4375 -9.65625 1.5625 -9.78125 C 1.6875 -9.90625 1.835938 -9.96875 2.015625 -9.96875 C 2.191406 -9.96875 2.34375 -9.90625 2.46875 -9.78125 C 2.601562 -9.65625 2.671875 -9.503906 2.671875 -9.328125 L 2.671875 -0.5625 C 2.671875 -0.382812 2.601562 -0.234375 2.46875 -0.109375 C 2.34375 0.015625 2.191406 0.078125 2.015625 0.078125 Z M 2.015625 0.078125 "/></g></g></g><g fill="#0cc0df" fill-opacity="1"><g transform="translate(280.061228, 202.957866)"><g><path d="M 4.3125 0.078125 C 4.132812 0.078125 3.984375 0.015625 3.859375 -0.109375 C 3.734375 -0.234375 3.671875 -0.382812 3.671875 -0.5625 L 3.671875 -8.703125 L 0.78125 -8.703125 C 0.613281 -8.703125 0.472656 -8.753906 0.359375 -8.859375 C 0.242188 -8.972656 0.1875 -9.117188 0.1875 -9.296875 C 0.1875 -9.460938 0.242188 -9.601562 0.359375 -9.71875 C 0.472656 -9.84375 0.613281 -9.90625 0.78125 -9.90625 L 7.84375 -9.90625 C 8.007812 -9.90625 8.148438 -9.84375 8.265625 -9.71875 C 8.390625 -9.601562 8.453125 -9.460938 8.453125 -9.296875 C 8.453125 -9.117188 8.390625 -8.972656 8.265625 -8.859375 C 8.148438 -8.753906 8.007812 -8.703125 7.84375 -8.703125 L 4.96875 -8.703125 L 4.96875 -0.5625 C 4.96875 -0.382812 4.898438 -0.234375 4.765625 -0.109375 C 4.640625 0.015625 4.488281 0.078125 4.3125 0.078125 Z M 4.3125 0.078125 "/></g></g></g><g fill="#0cc0df" fill-opacity="1"><g transform="translate(288.699036, 202.957866)"><g/></g></g><g fill="#0cc0df" fill-opacity="1"><g transform="translate(292.386778, 202.957866)"><g><path d="M 4.5 0.140625 C 3.300781 0.140625 2.175781 -0.0859375 1.125 -0.546875 C 1.007812 -0.585938 0.910156 -0.660156 0.828125 -0.765625 C 0.753906 -0.878906 0.71875 -1 0.71875 -1.125 C 0.71875 -1.28125 0.769531 -1.414062 0.875 -1.53125 C 0.988281 -1.65625 1.132812 -1.71875 1.3125 -1.71875 C 1.40625 -1.71875 1.492188 -1.695312 1.578125 -1.65625 C 2.441406 -1.269531 3.375 -1.078125 4.375 -1.078125 C 6.03125 -1.078125 6.859375 -1.617188 6.859375 -2.703125 C 6.859375 -2.992188 6.75 -3.234375 6.53125 -3.421875 C 6.320312 -3.609375 6.0625 -3.753906 5.75 -3.859375 C 5.4375 -3.972656 4.988281 -4.101562 4.40625 -4.25 C 3.644531 -4.445312 3.023438 -4.640625 2.546875 -4.828125 C 2.078125 -5.015625 1.671875 -5.289062 1.328125 -5.65625 C 0.992188 -6.03125 0.828125 -6.523438 0.828125 -7.140625 C 0.828125 -7.671875 0.96875 -8.15625 1.25 -8.59375 C 1.53125 -9.039062 1.945312 -9.394531 2.5 -9.65625 C 3.050781 -9.914062 3.71875 -10.046875 4.5 -10.046875 C 5.539062 -10.046875 6.484375 -9.890625 7.328125 -9.578125 C 7.585938 -9.484375 7.71875 -9.296875 7.71875 -9.015625 C 7.71875 -8.859375 7.664062 -8.71875 7.5625 -8.59375 C 7.457031 -8.46875 7.320312 -8.40625 7.15625 -8.40625 C 7.09375 -8.40625 7.015625 -8.425781 6.921875 -8.46875 C 6.179688 -8.726562 5.421875 -8.859375 4.640625 -8.859375 C 3.890625 -8.859375 3.28125 -8.710938 2.8125 -8.421875 C 2.34375 -8.140625 2.109375 -7.742188 2.109375 -7.234375 C 2.109375 -6.890625 2.21875 -6.613281 2.4375 -6.40625 C 2.664062 -6.195312 2.945312 -6.03125 3.28125 -5.90625 C 3.613281 -5.789062 4.070312 -5.664062 4.65625 -5.53125 C 5.40625 -5.351562 6.007812 -5.171875 6.46875 -4.984375 C 6.925781 -4.804688 7.316406 -4.53125 7.640625 -4.15625 C 7.960938 -3.78125 8.125 -3.269531 8.125 -2.625 C 8.125 -2.09375 7.972656 -1.613281 7.671875 -1.1875 C 7.367188 -0.769531 6.941406 -0.441406 6.390625 -0.203125 C 5.847656 0.0234375 5.21875 0.140625 4.5 0.140625 Z M 4.5 0.140625 "/></g></g></g><g fill="#0cc0df" fill-opacity="1"><g transform="translate(301.123888, 202.957866)"><g><path d="M 5.765625 0.140625 C 4.765625 0.140625 3.890625 -0.0703125 3.140625 -0.5 C 2.398438 -0.9375 1.828125 -1.539062 1.421875 -2.3125 C 1.015625 -3.082031 0.800781 -3.960938 0.78125 -4.953125 C 0.800781 -5.941406 1.015625 -6.816406 1.421875 -7.578125 C 1.828125 -8.347656 2.398438 -8.953125 3.140625 -9.390625 C 3.890625 -9.828125 4.765625 -10.046875 5.765625 -10.046875 C 6.753906 -10.046875 7.617188 -9.828125 8.359375 -9.390625 C 9.109375 -8.953125 9.6875 -8.347656 10.09375 -7.578125 C 10.507812 -6.804688 10.722656 -5.929688 10.734375 -4.953125 C 10.722656 -3.960938 10.507812 -3.082031 10.09375 -2.3125 C 9.6875 -1.539062 9.109375 -0.9375 8.359375 -0.5 C 7.617188 -0.0703125 6.753906 0.140625 5.765625 0.140625 Z M 5.765625 -1.0625 C 6.515625 -1.0625 7.164062 -1.226562 7.71875 -1.5625 C 8.28125 -1.90625 8.707031 -2.367188 9 -2.953125 C 9.300781 -3.546875 9.453125 -4.210938 9.453125 -4.953125 C 9.453125 -5.691406 9.300781 -6.351562 9 -6.9375 C 8.707031 -7.519531 8.28125 -7.984375 7.71875 -8.328125 C 7.164062 -8.671875 6.515625 -8.84375 5.765625 -8.84375 C 4.992188 -8.84375 4.332031 -8.671875 3.78125 -8.328125 C 3.226562 -7.984375 2.804688 -7.519531 2.515625 -6.9375 C 2.222656 -6.351562 2.078125 -5.691406 2.078125 -4.953125 C 2.078125 -4.210938 2.222656 -3.546875 2.515625 -2.953125 C 2.804688 -2.367188 3.226562 -1.90625 3.78125 -1.5625 C 4.332031 -1.226562 4.992188 -1.0625 5.765625 -1.0625 Z M 5.765625 -1.0625 "/></g></g></g><g fill="#0cc0df" fill-opacity="1"><g transform="translate(312.640953, 202.957866)"><g><path d="M 2.265625 0 C 2.023438 0 1.816406 -0.0859375 1.640625 -0.265625 C 1.460938 -0.441406 1.375 -0.648438 1.375 -0.890625 L 1.375 -9.328125 C 1.375 -9.503906 1.4375 -9.65625 1.5625 -9.78125 C 1.6875 -9.90625 1.835938 -9.96875 2.015625 -9.96875 C 2.191406 -9.96875 2.34375 -9.90625 2.46875 -9.78125 C 2.601562 -9.65625 2.671875 -9.503906 2.671875 -9.328125 L 2.671875 -1.296875 L 7.3125 -1.296875 C 7.488281 -1.296875 7.640625 -1.226562 7.765625 -1.09375 C 7.890625 -0.96875 7.953125 -0.816406 7.953125 -0.640625 C 7.953125 -0.460938 7.890625 -0.3125 7.765625 -0.1875 C 7.640625 -0.0625 7.488281 0 7.3125 0 Z M 2.265625 0 "/></g></g></g><g fill="#0cc0df" fill-opacity="1"><g transform="translate(320.81071, 202.957866)"><g><path d="M 5.375 0.140625 C 4.707031 0.140625 4.0625 0 3.4375 -0.28125 C 2.8125 -0.5625 2.300781 -0.992188 1.90625 -1.578125 C 1.507812 -2.160156 1.3125 -2.875 1.3125 -3.71875 L 1.3125 -9.328125 C 1.3125 -9.503906 1.367188 -9.65625 1.484375 -9.78125 C 1.609375 -9.90625 1.757812 -9.96875 1.9375 -9.96875 C 2.125 -9.96875 2.28125 -9.90625 2.40625 -9.78125 C 2.53125 -9.65625 2.59375 -9.503906 2.59375 -9.328125 L 2.59375 -3.671875 C 2.59375 -3.109375 2.722656 -2.625 2.984375 -2.21875 C 3.242188 -1.820312 3.585938 -1.523438 4.015625 -1.328125 C 4.441406 -1.128906 4.894531 -1.03125 5.375 -1.03125 C 5.851562 -1.03125 6.304688 -1.128906 6.734375 -1.328125 C 7.160156 -1.523438 7.503906 -1.820312 7.765625 -2.21875 C 8.023438 -2.625 8.15625 -3.109375 8.15625 -3.671875 L 8.15625 -9.328125 C 8.15625 -9.503906 8.21875 -9.65625 8.34375 -9.78125 C 8.46875 -9.90625 8.617188 -9.96875 8.796875 -9.96875 C 8.972656 -9.96875 9.125 -9.90625 9.25 -9.78125 C 9.382812 -9.65625 9.453125 -9.503906 9.453125 -9.328125 L 9.453125 -3.71875 C 9.453125 -2.875 9.25 -2.160156 8.84375 -1.578125 C 8.445312 -0.992188 7.9375 -0.5625 7.3125 -0.28125 C 6.695312 0 6.050781 0.140625 5.375 0.140625 Z M 5.375 0.140625 "/></g></g></g><g fill="#0cc0df" fill-opacity="1"><g transform="translate(331.56189, 202.957866)"><g><path d="M 4.3125 0.078125 C 4.132812 0.078125 3.984375 0.015625 3.859375 -0.109375 C 3.734375 -0.234375 3.671875 -0.382812 3.671875 -0.5625 L 3.671875 -8.703125 L 0.78125 -8.703125 C 0.613281 -8.703125 0.472656 -8.753906 0.359375 -8.859375 C 0.242188 -8.972656 0.1875 -9.117188 0.1875 -9.296875 C 0.1875 -9.460938 0.242188 -9.601562 0.359375 -9.71875 C 0.472656 -9.84375 0.613281 -9.90625 0.78125 -9.90625 L 7.84375 -9.90625 C 8.007812 -9.90625 8.148438 -9.84375 8.265625 -9.71875 C 8.390625 -9.601562 8.453125 -9.460938 8.453125 -9.296875 C 8.453125 -9.117188 8.390625 -8.972656 8.265625 -8.859375 C 8.148438 -8.753906 8.007812 -8.703125 7.84375 -8.703125 L 4.96875 -8.703125 L 4.96875 -0.5625 C 4.96875 -0.382812 4.898438 -0.234375 4.765625 -0.109375 C 4.640625 0.015625 4.488281 0.078125 4.3125 0.078125 Z M 4.3125 0.078125 "/></g></g></g><g fill="#0cc0df" fill-opacity="1"><g transform="translate(340.199698, 202.957866)"><g><path d="M 2.015625 0.078125 C 1.835938 0.078125 1.6875 0.015625 1.5625 -0.109375 C 1.4375 -0.234375 1.375 -0.382812 1.375 -0.5625 L 1.375 -9.328125 C 1.375 -9.503906 1.4375 -9.65625 1.5625 -9.78125 C 1.6875 -9.90625 1.835938 -9.96875 2.015625 -9.96875 C 2.191406 -9.96875 2.34375 -9.90625 2.46875 -9.78125 C 2.601562 -9.65625 2.671875 -9.503906 2.671875 -9.328125 L 2.671875 -0.5625 C 2.671875 -0.382812 2.601562 -0.234375 2.46875 -0.109375 C 2.34375 0.015625 2.191406 0.078125 2.015625 0.078125 Z M 2.015625 0.078125 "/></g></g></g><g fill="#0cc0df" fill-opacity="1"><g transform="translate(344.242049, 202.957866)"><g><path d="M 5.765625 0.140625 C 4.765625 0.140625 3.890625 -0.0703125 3.140625 -0.5 C 2.398438 -0.9375 1.828125 -1.539062 1.421875 -2.3125 C 1.015625 -3.082031 0.800781 -3.960938 0.78125 -4.953125 C 0.800781 -5.941406 1.015625 -6.816406 1.421875 -7.578125 C 1.828125 -8.347656 2.398438 -8.953125 3.140625 -9.390625 C 3.890625 -9.828125 4.765625 -10.046875 5.765625 -10.046875 C 6.753906 -10.046875 7.617188 -9.828125 8.359375 -9.390625 C 9.109375 -8.953125 9.6875 -8.347656 10.09375 -7.578125 C 10.507812 -6.804688 10.722656 -5.929688 10.734375 -4.953125 C 10.722656 -3.960938 10.507812 -3.082031 10.09375 -2.3125 C 9.6875 -1.539062 9.109375 -0.9375 8.359375 -0.5 C 7.617188 -0.0703125 6.753906 0.140625 5.765625 0.140625 Z M 5.765625 -1.0625 C 6.515625 -1.0625 7.164062 -1.226562 7.71875 -1.5625 C 8.28125 -1.90625 8.707031 -2.367188 9 -2.953125 C 9.300781 -3.546875 9.453125 -4.210938 9.453125 -4.953125 C 9.453125 -5.691406 9.300781 -6.351562 9 -6.9375 C 8.707031 -7.519531 8.28125 -7.984375 7.71875 -8.328125 C 7.164062 -8.671875 6.515625 -8.84375 5.765625 -8.84375 C 4.992188 -8.84375 4.332031 -8.671875 3.78125 -8.328125 C 3.226562 -7.984375 2.804688 -7.519531 2.515625 -6.9375 C 2.222656 -6.351562 2.078125 -5.691406 2.078125 -4.953125 C 2.078125 -4.210938 2.222656 -3.546875 2.515625 -2.953125 C 2.804688 -2.367188 3.226562 -1.90625 3.78125 -1.5625 C 4.332031 -1.226562 4.992188 -1.0625 5.765625 -1.0625 Z M 5.765625 -1.0625 "/></g></g></g><g fill="#0cc0df" fill-opacity="1"><g transform="translate(355.75915, 202.957866)"><g><path d="M 2.015625 0.078125 C 1.835938 0.078125 1.6875 0.015625 1.5625 -0.109375 C 1.4375 -0.234375 1.375 -0.382812 1.375 -0.5625 L 1.375 -9.03125 C 1.375 -9.289062 1.460938 -9.507812 1.640625 -9.6875 C 1.828125 -9.875 2.046875 -9.96875 2.296875 -9.96875 L 2.484375 -9.96875 C 2.785156 -9.96875 3.046875 -9.828125 3.265625 -9.546875 L 8.71875 -1.65625 L 8.71875 -9.328125 C 8.71875 -9.503906 8.78125 -9.65625 8.90625 -9.78125 C 9.03125 -9.90625 9.179688 -9.96875 9.359375 -9.96875 C 9.546875 -9.96875 9.703125 -9.90625 9.828125 -9.78125 C 9.953125 -9.65625 10.015625 -9.503906 10.015625 -9.328125 L 10.015625 -0.84375 C 10.015625 -0.59375 9.921875 -0.375 9.734375 -0.1875 C 9.554688 -0.0078125 9.335938 0.078125 9.078125 0.078125 L 8.90625 0.078125 C 8.757812 0.078125 8.617188 0.0390625 8.484375 -0.03125 C 8.347656 -0.101562 8.238281 -0.195312 8.15625 -0.3125 L 2.671875 -8.25 L 2.671875 -0.5625 C 2.671875 -0.382812 2.601562 -0.234375 2.46875 -0.109375 C 2.34375 0.015625 2.191406 0.078125 2.015625 0.078125 Z M 2.015625 0.078125 "/></g></g></g><g fill="#0cc0df" fill-opacity="1"><g transform="translate(367.148562, 202.957866)"><g><path d="M 4.5 0.140625 C 3.300781 0.140625 2.175781 -0.0859375 1.125 -0.546875 C 1.007812 -0.585938 0.910156 -0.660156 0.828125 -0.765625 C 0.753906 -0.878906 0.71875 -1 0.71875 -1.125 C 0.71875 -1.28125 0.769531 -1.414062 0.875 -1.53125 C 0.988281 -1.65625 1.132812 -1.71875 1.3125 -1.71875 C 1.40625 -1.71875 1.492188 -1.695312 1.578125 -1.65625 C 2.441406 -1.269531 3.375 -1.078125 4.375 -1.078125 C 6.03125 -1.078125 6.859375 -1.617188 6.859375 -2.703125 C 6.859375 -2.992188 6.75 -3.234375 6.53125 -3.421875 C 6.320312 -3.609375 6.0625 -3.753906 5.75 -3.859375 C 5.4375 -3.972656 4.988281 -4.101562 4.40625 -4.25 C 3.644531 -4.445312 3.023438 -4.640625 2.546875 -4.828125 C 2.078125 -5.015625 1.671875 -5.289062 1.328125 -5.65625 C 0.992188 -6.03125 0.828125 -6.523438 0.828125 -7.140625 C 0.828125 -7.671875 0.96875 -8.15625 1.25 -8.59375 C 1.53125 -9.039062 1.945312 -9.394531 2.5 -9.65625 C 3.050781 -9.914062 3.71875 -10.046875 4.5 -10.046875 C 5.539062 -10.046875 6.484375 -9.890625 7.328125 -9.578125 C 7.585938 -9.484375 7.71875 -9.296875 7.71875 -9.015625 C 7.71875 -8.859375 7.664062 -8.71875 7.5625 -8.59375 C 7.457031 -8.46875 7.320312 -8.40625 7.15625 -8.40625 C 7.09375 -8.40625 7.015625 -8.425781 6.921875 -8.46875 C 6.179688 -8.726562 5.421875 -8.859375 4.640625 -8.859375 C 3.890625 -8.859375 3.28125 -8.710938 2.8125 -8.421875 C 2.34375 -8.140625 2.109375 -7.742188 2.109375 -7.234375 C 2.109375 -6.890625 2.21875 -6.613281 2.4375 -6.40625 C 2.664062 -6.195312 2.945312 -6.03125 3.28125 -5.90625 C 3.613281 -5.789062 4.070312 -5.664062 4.65625 -5.53125 C 5.40625 -5.351562 6.007812 -5.171875 6.46875 -4.984375 C 6.925781 -4.804688 7.316406 -4.53125 7.640625 -4.15625 C 7.960938 -3.78125 8.125 -3.269531 8.125 -2.625 C 8.125 -2.09375 7.972656 -1.613281 7.671875 -1.1875 C 7.367188 -0.769531 6.941406 -0.441406 6.390625 -0.203125 C 5.847656 0.0234375 5.21875 0.140625 4.5 0.140625 Z M 4.5 0.140625 "/></g></g></g></svg>